<svg width="24" height="25" viewBox="0 0 24 25" fill="none" xmlns="http://www.w3.org/2000/svg">
<path d="M12 24.5289C9.62663 24.5289 7.30655 23.8251 5.33316 22.5065C3.35977 21.1879 1.8217 19.3138 0.913451 17.1211C0.00519943 14.9284 -0.232441 12.5156 0.230582 10.1878C0.693605 7.86002 1.83649 5.72182 3.51472 4.04359C5.19295 2.36536 7.33115 1.22247 9.65892 0.759452C11.9867 0.296429 14.3995 0.534069 16.5922 1.44232C18.7849 2.35057 20.6591 3.88864 21.9776 5.86203C23.2962 7.83542 24 10.1555 24 12.5289C23.9966 15.7104 22.7312 18.7607 20.4815 21.0104C18.2318 23.26 15.1815 24.5254 12 24.5289ZM12 2.52888C10.0222 2.52888 8.08879 3.11537 6.4443 4.21418C4.79981 5.31299 3.51809 6.87478 2.76121 8.70204C2.00433 10.5293 1.8063 12.54 2.19215 14.4798C2.578 16.4196 3.53041 18.2014 4.92894 19.5999C6.32746 20.9985 8.10929 21.9509 10.0491 22.3367C11.9889 22.7226 13.9996 22.5245 15.8268 21.7677C17.6541 21.0108 19.2159 19.7291 20.3147 18.0846C21.4135 16.4401 22 14.5067 22 12.5289C21.9971 9.8776 20.9426 7.33576 19.0679 5.46102C17.1931 3.58629 14.6513 2.53179 12 2.52888Z" fill="#1D4791"/>
<path d="M14 19.5289H12V12.5289H10V10.5289H12C12.5304 10.5289 13.0391 10.7396 13.4142 11.1146C13.7893 11.4897 14 11.9984 14 12.5289V19.5289Z" fill="#1D4791"/>
<path d="M12 8.52887C12.8284 8.52887 13.5 7.8573 13.5 7.02887C13.5 6.20044 12.8284 5.52887 12 5.52887C11.1716 5.52887 10.5 6.20044 10.5 7.02887C10.5 7.8573 11.1716 8.52887 12 8.52887Z" fill="#1D4791"/>
</svg>
