<svg width="25" height="25" viewBox="0 0 25 25" fill="none" xmlns="http://www.w3.org/2000/svg">
<path d="M9.78078 19.3638V11.3628H8.83128C8.15125 11.7253 7.49402 12.129 6.86328 12.5718V13.6143C7.42578 13.2288 8.31678 12.6843 8.75028 12.4488H8.76828V19.3638H9.78078ZM11.5628 17.4063C11.6333 18.3663 12.4538 19.5153 14.1173 19.5153C16.0043 19.5153 17.1173 17.9163 17.1173 15.2088C17.1173 12.3078 15.9458 11.2068 14.1878 11.2068C12.7988 11.2068 11.4923 12.2148 11.4923 13.9203C11.4923 15.6603 12.7283 16.5753 14.0063 16.5753C15.1253 16.5753 15.8513 16.0113 16.0808 15.3903H16.1213C16.1153 17.3643 15.4298 18.6363 14.1638 18.6363C13.1678 18.6363 12.6518 17.9613 12.5888 17.4063H11.5628ZM15.9923 13.9308C15.9923 14.9748 15.1538 15.7008 14.2163 15.7008C13.3148 15.7008 12.5003 15.1263 12.5003 13.9008C12.5003 12.6663 13.3733 12.0858 14.2523 12.0858C15.2018 12.0858 15.9923 12.6828 15.9923 13.9308Z" fill="#1D4791"/>
<path d="M5.36328 0.331757C5.56219 0.331757 5.75296 0.410774 5.89361 0.551427C6.03426 0.692079 6.11328 0.882844 6.11328 1.08176V1.83176H18.1133V1.08176C18.1133 0.882844 18.1923 0.692079 18.333 0.551427C18.4736 0.410774 18.6644 0.331757 18.8633 0.331757C19.0622 0.331757 19.253 0.410774 19.3936 0.551427C19.5343 0.692079 19.6133 0.882844 19.6133 1.08176V1.83176H21.1133C21.9089 1.83176 22.672 2.14783 23.2346 2.71044C23.7972 3.27305 24.1133 4.03611 24.1133 4.83176V21.3318C24.1133 22.1274 23.7972 22.8905 23.2346 23.4531C22.672 24.0157 21.9089 24.3318 21.1133 24.3318H3.11328C2.31763 24.3318 1.55457 24.0157 0.991961 23.4531C0.429352 22.8905 0.113281 22.1274 0.113281 21.3318V4.83176C0.113281 4.03611 0.429352 3.27305 0.991961 2.71044C1.55457 2.14783 2.31763 1.83176 3.11328 1.83176H4.61328V1.08176C4.61328 0.882844 4.6923 0.692079 4.83295 0.551427C4.9736 0.410774 5.16437 0.331757 5.36328 0.331757V0.331757ZM3.11328 3.33176C2.71546 3.33176 2.33393 3.48979 2.05262 3.7711C1.77132 4.0524 1.61328 4.43393 1.61328 4.83176V21.3318C1.61328 21.7296 1.77132 22.1111 2.05262 22.3924C2.33393 22.6737 2.71546 22.8318 3.11328 22.8318H21.1133C21.5111 22.8318 21.8926 22.6737 22.1739 22.3924C22.4552 22.1111 22.6133 21.7296 22.6133 21.3318V4.83176C22.6133 4.43393 22.4552 4.0524 22.1739 3.7711C21.8926 3.48979 21.5111 3.33176 21.1133 3.33176H3.11328Z" fill="#1D4791"/>
<path d="M3.86328 6.33176C3.86328 6.13284 3.9423 5.94208 4.08295 5.80143C4.2236 5.66077 4.41437 5.58176 4.61328 5.58176H19.6133C19.8122 5.58176 20.003 5.66077 20.1436 5.80143C20.2843 5.94208 20.3633 6.13284 20.3633 6.33176V7.83176C20.3633 8.03067 20.2843 8.22143 20.1436 8.36209C20.003 8.50274 19.8122 8.58176 19.6133 8.58176H4.61328C4.41437 8.58176 4.2236 8.50274 4.08295 8.36209C3.9423 8.22143 3.86328 8.03067 3.86328 7.83176V6.33176Z" fill="#1D4791"/>
</svg>
