<svg width="31" height="31" viewBox="0 0 31 31" fill="none" xmlns="http://www.w3.org/2000/svg">
<path d="M7.27549 10.178C6.91736 7.8192 8.58048 5.70045 11.1211 4.9242C11.572 4.78636 12.0584 4.82559 12.4813 5.03392C12.9043 5.24225 13.2319 5.604 13.3974 6.04545L14.213 8.22045C14.3443 8.57035 14.368 8.9515 14.2812 9.31499C14.1943 9.67848 14.0008 10.0077 13.7255 10.2605L11.2992 12.4823C11.1796 12.5921 11.0905 12.7309 11.0406 12.8854C10.9906 13.0398 10.9816 13.2046 11.0142 13.3636L11.0367 13.4611L11.0949 13.7048C11.3966 14.8892 11.8563 16.0275 12.4617 17.0892C13.1212 18.2174 13.9396 19.2448 14.8917 20.1398L14.9667 20.2073C15.0879 20.3148 15.2348 20.3891 15.3932 20.423C15.5515 20.4568 15.716 20.4491 15.8705 20.4005L19.0074 19.4123C19.3639 19.3004 19.7457 19.2975 20.1038 19.4041C20.4619 19.5107 20.7801 19.7218 21.0174 20.0105L22.5024 21.8123C23.1211 22.5623 23.0461 23.6648 22.3355 24.3267C20.3911 26.1398 17.7174 26.5111 15.8574 25.0167C13.5774 23.1776 11.6554 20.9346 10.1874 18.3998C8.70741 15.867 7.71885 13.0775 7.27361 10.178H7.27549ZM12.9811 13.4873L14.9911 11.6423C15.5421 11.1371 15.9294 10.4787 16.1035 9.75172C16.2775 9.02473 16.2304 8.2623 15.968 7.56233L15.1542 5.38733C14.8211 4.49904 14.1619 3.77119 13.3108 3.35209C12.4597 2.93298 11.4808 2.85417 10.5736 3.1317C7.41799 4.09733 4.88486 6.9267 5.42111 10.4611C5.79611 12.9286 6.66049 16.0673 8.56736 19.3448C10.1512 22.078 12.2245 24.4964 14.6836 26.4792C17.4736 28.7198 21.1974 27.9548 23.6161 25.7011C24.3082 25.0567 24.7283 24.1725 24.7907 23.2289C24.853 22.2853 24.553 21.3535 23.9517 20.6236L22.4667 18.8198C21.9917 18.2432 21.3552 17.8217 20.639 17.6092C19.9227 17.3967 19.1594 17.403 18.4467 17.6273L15.8424 18.4467C15.1699 17.7534 14.5809 16.9838 14.0874 16.1536C13.6106 15.3143 13.239 14.4194 12.9811 13.4892V13.4873Z" fill="#395E9E"/>
</svg>
