<svg width="48" height="48" viewBox="0 0 48 48" fill="none" xmlns="http://www.w3.org/2000/svg">
<circle cx="24" cy="24" r="24" fill="#D9D9D9"/>
<path d="M33.1559 16.8063H31.4817L31.0632 15.4984C30.7918 14.7309 30.2885 14.0668 29.623 13.5981C28.9574 13.1294 28.1626 12.8793 27.3486 12.8825H20.652C19.83 12.884 19.0293 13.1436 18.3628 13.6247C17.6963 14.1058 17.1977 14.7841 16.9374 15.5638L16.5189 16.8717H14.8447C13.8041 16.8717 12.806 17.2851 12.0702 18.0209C11.3343 18.7568 10.9209 19.7548 10.9209 20.7955V31.259C10.9209 32.2997 11.3343 33.2977 12.0702 34.0336C12.806 34.7694 13.8041 35.1828 14.8447 35.1828H33.1559C34.1965 35.1828 35.1946 34.7694 35.9304 34.0336C36.6663 33.2977 37.0797 32.2997 37.0797 31.259V20.7955C37.0884 20.2747 36.9933 19.7575 36.8 19.2738C36.6067 18.7902 36.319 18.3499 35.9538 17.9786C35.5886 17.6073 35.1531 17.3124 34.6727 17.1111C34.1923 16.9098 33.6767 16.8062 33.1559 16.8063ZM34.4638 31.1936C34.4638 31.5405 34.326 31.8732 34.0807 32.1185C33.8354 32.3638 33.5027 32.5016 33.1559 32.5016H14.8447C14.4978 32.5016 14.1651 32.3638 13.9199 32.1185C13.6746 31.8732 13.5368 31.5405 13.5368 31.1936V20.7301C13.5368 20.3832 13.6746 20.0505 13.9199 19.8053C14.1651 19.56 14.4978 19.4222 14.8447 19.4222H17.4606C17.7458 19.4371 18.0281 19.3582 18.2642 19.1976C18.5004 19.037 18.6775 18.8035 18.7685 18.5328L19.4748 16.3878C19.5626 16.128 19.7297 15.9023 19.9527 15.7427C20.1757 15.5831 20.4432 15.4976 20.7174 15.4984H27.414C27.6882 15.4976 27.9557 15.5831 28.1787 15.7427C28.4016 15.9023 28.5688 16.128 28.6566 16.3878L29.3628 18.5328C29.4468 18.7823 29.604 19.0006 29.814 19.1593C30.0241 19.318 30.2771 19.4096 30.54 19.4222H33.1559C33.5027 19.4222 33.8354 19.56 34.0807 19.8053C34.326 20.0505 34.4638 20.3832 34.4638 20.7301V31.1936ZM24.0003 19.4222C22.9655 19.4222 21.954 19.729 21.0937 20.3039C20.2333 20.8788 19.5628 21.6958 19.1668 22.6518C18.7708 23.6078 18.6672 24.6597 18.8691 25.6746C19.0709 26.6895 19.5692 27.6217 20.3009 28.3533C21.0326 29.085 21.9648 29.5833 22.9796 29.7852C23.9945 29.987 25.0464 29.8834 26.0024 29.4874C26.9584 29.0915 27.7755 28.4209 28.3503 27.5605C28.9252 26.7002 29.232 25.6887 29.232 24.6539C29.232 23.2664 28.6808 21.9357 27.6997 20.9545C26.7186 19.9734 25.3878 19.4222 24.0003 19.4222ZM24.0003 27.2698C23.4829 27.2698 22.9772 27.1164 22.547 26.8289C22.1168 26.5415 21.7815 26.133 21.5835 25.655C21.3855 25.177 21.3337 24.651 21.4347 24.1436C21.5356 23.6362 21.7847 23.1701 22.1506 22.8042C22.5164 22.4384 22.9825 22.1892 23.49 22.0883C23.9974 21.9874 24.5234 22.0392 25.0013 22.2372C25.4793 22.4352 25.8879 22.7704 26.1753 23.2006C26.4627 23.6308 26.6162 24.1366 26.6162 24.6539C26.6162 25.3477 26.3406 26.0131 25.85 26.5036C25.3594 26.9942 24.6941 27.2698 24.0003 27.2698Z" fill="white"/>
</svg>
