<svg width="50" height="50" viewBox="0 0 50 50" fill="none" xmlns="http://www.w3.org/2000/svg">
<rect width="50" height="50" rx="25" fill="#1D4791"/>
<path d="M23.7881 25.0001L21.3641 22.5761C21.208 22.4145 21.1216 22.1979 21.1236 21.9732C21.1255 21.7485 21.2157 21.5335 21.3746 21.3746C21.5335 21.2156 21.7485 21.1255 21.9732 21.1235C22.198 21.1216 22.4145 21.208 22.5761 21.3641L25.0001 23.7881L27.4241 21.3641C27.5032 21.2823 27.5978 21.217 27.7024 21.172C27.8069 21.1271 27.9194 21.1035 28.0332 21.1025C28.147 21.1015 28.2599 21.1232 28.3653 21.1663C28.4706 21.2094 28.5663 21.273 28.6468 21.3535C28.7273 21.434 28.7909 21.5297 28.834 21.635C28.8771 21.7404 28.8988 21.8532 28.8978 21.967C28.8968 22.0809 28.8732 22.1933 28.8282 22.2979C28.7833 22.4025 28.718 22.4971 28.6362 22.5761L26.2121 25.0001L28.6362 27.4241C28.718 27.5032 28.7833 27.5978 28.8282 27.7024C28.8732 27.8069 28.8968 27.9194 28.8978 28.0332C28.8988 28.147 28.8771 28.2599 28.834 28.3652C28.7909 28.4706 28.7273 28.5663 28.6468 28.6468C28.5663 28.7272 28.4706 28.7909 28.3653 28.834C28.2599 28.8771 28.147 28.8988 28.0332 28.8978C27.9194 28.8968 27.8069 28.8731 27.7024 28.8282C27.5978 28.7833 27.5032 28.718 27.4241 28.6361L25.0001 26.2121L22.5761 28.6361C22.4145 28.7923 22.198 28.8787 21.9732 28.8767C21.7485 28.8748 21.5335 28.7846 21.3746 28.6257C21.2157 28.4668 21.1255 28.2518 21.1236 28.027C21.1216 27.8023 21.208 27.5858 21.3641 27.4241L23.7881 25.0001Z" fill="white"/>
<path d="M25 35.2857C26.3507 35.2857 27.6883 35.0197 28.9362 34.5028C30.1841 33.9859 31.318 33.2282 32.2731 32.2731C33.2282 31.318 33.9859 30.1841 34.5028 28.9362C35.0197 27.6883 35.2857 26.3507 35.2857 25C35.2857 23.6493 35.0197 22.3117 34.5028 21.0638C33.9859 19.8159 33.2282 18.682 32.2731 17.7269C31.318 16.7718 30.1841 16.0141 28.9362 15.4972C27.6883 14.9803 26.3507 14.7143 25 14.7143C22.2721 14.7143 19.6558 15.798 17.7269 17.7269C15.798 19.6558 14.7143 22.2721 14.7143 25C14.7143 27.7279 15.798 30.3442 17.7269 32.2731C19.6558 34.202 22.2721 35.2857 25 35.2857ZM25 37C21.8174 37 18.7652 35.7357 16.5147 33.4853C14.2643 31.2348 13 28.1826 13 25C13 21.8174 14.2643 18.7652 16.5147 16.5147C18.7652 14.2643 21.8174 13 25 13C28.1826 13 31.2348 14.2643 33.4853 16.5147C35.7357 18.7652 37 21.8174 37 25C37 28.1826 35.7357 31.2348 33.4853 33.4853C31.2348 35.7357 28.1826 37 25 37Z" fill="white"/>
</svg>
