<svg width="32" height="33" viewBox="0 0 32 33" fill="none" xmlns="http://www.w3.org/2000/svg">
<path d="M21.9657 8.09149L24.7897 10.9142L21.9657 8.09149ZM23.7817 5.60483L16.1457 13.2408C15.7511 13.6348 15.482 14.1368 15.3723 14.6835L14.667 18.2142L18.1977 17.5075C18.7443 17.3982 19.2457 17.1302 19.6403 16.7355L27.2763 9.09949C27.5058 8.87003 27.6878 8.59762 27.812 8.29781C27.9362 7.998 28.0001 7.67667 28.0001 7.35216C28.0001 7.02765 27.9362 6.70632 27.812 6.40651C27.6878 6.1067 27.5058 5.83429 27.2763 5.60483C27.0469 5.37536 26.7745 5.19334 26.4746 5.06916C26.1748 4.94497 25.8535 4.88106 25.529 4.88106C25.2045 4.88106 24.8831 4.94497 24.5833 5.06916C24.2835 5.19334 24.0111 5.37536 23.7817 5.60483V5.60483Z" stroke="#FF8C21" stroke-width="2" stroke-linecap="round" stroke-linejoin="round"/>
<path d="M25.3335 20.8808V24.8808C25.3335 25.5881 25.0525 26.2663 24.5524 26.7664C24.0524 27.2665 23.3741 27.5475 22.6668 27.5475H8.00016C7.29292 27.5475 6.61464 27.2665 6.11454 26.7664C5.61445 26.2663 5.3335 25.5881 5.3335 24.8808V10.2142C5.3335 9.50692 5.61445 8.82864 6.11454 8.32854C6.61464 7.82844 7.29292 7.54749 8.00016 7.54749H12.0002" stroke="#FF8C21" stroke-width="2" stroke-linecap="round" stroke-linejoin="round"/>
</svg>
