<svg width="31" height="31" viewBox="0 0 31 31" fill="none" xmlns="http://www.w3.org/2000/svg">
<path d="M24.562 5.31921H7.06201C6.06745 5.31921 5.11362 5.7143 4.41036 6.41756C3.7071 7.12082 3.31201 8.07465 3.31201 9.06921V21.5692C3.31201 22.5638 3.7071 23.5176 4.41036 24.2209C5.11362 24.9241 6.06745 25.3192 7.06201 25.3192H24.562C25.5566 25.3192 26.5104 24.9241 27.2137 24.2209C27.9169 23.5176 28.312 22.5638 28.312 21.5692V9.06921C28.312 8.07465 27.9169 7.12082 27.2137 6.41756C26.5104 5.7143 25.5566 5.31921 24.562 5.31921ZM23.7245 7.81921L15.812 13.7567L7.89951 7.81921H23.7245ZM24.562 22.8192H7.06201C6.73049 22.8192 6.41255 22.6875 6.17813 22.4531C5.94371 22.2187 5.81201 21.9007 5.81201 21.5692V9.38171L15.062 16.3192C15.2784 16.4815 15.5415 16.5692 15.812 16.5692C16.0825 16.5692 16.3456 16.4815 16.562 16.3192L25.812 9.38171V21.5692C25.812 21.9007 25.6803 22.2187 25.4459 22.4531C25.2115 22.6875 24.8935 22.8192 24.562 22.8192Z" fill="#1D4791"/>
</svg>
