<svg width="6" height="9" viewBox="0 0 6 9" fill="none" xmlns="http://www.w3.org/2000/svg">
<path d="M1.35645 0.12501C1.44983 0.124693 1.54208 0.145301 1.62644 0.185319C1.71081 0.225337 1.78513 0.283748 1.84395 0.356261L4.8627 4.10626C4.95463 4.21809 5.00488 4.35837 5.00488 4.50314C5.00488 4.6479 4.95463 4.78818 4.8627 4.90001L1.7377 8.65001C1.63162 8.77765 1.47917 8.85791 1.31391 8.87315C1.14864 8.88839 0.984088 8.83735 0.856452 8.73126C0.728817 8.62517 0.648552 8.47273 0.633315 8.30746C0.618077 8.1422 0.669116 7.97765 0.775202 7.85001L3.56895 4.50001L0.868953 1.15001C0.792526 1.05827 0.743978 0.946557 0.729054 0.828089C0.714129 0.709621 0.733452 0.589356 0.784737 0.481526C0.836022 0.373696 0.917122 0.282815 1.01844 0.219633C1.11976 0.156452 1.23706 0.123616 1.35645 0.12501Z" fill="#1875FF"/>
</svg>
