<svg width="15" height="15" viewBox="0 0 15 15" fill="none" xmlns="http://www.w3.org/2000/svg">
<rect x="3.9585" y="3.25831" width="7.77237" height="7.77237" fill="white"/>
<path d="M7.84462 1.11921C9.44263 1.11921 10.9752 1.75401 12.1051 2.88398C13.2351 4.01394 13.8699 5.54649 13.8699 7.1445C13.8699 8.7425 13.2351 10.2751 12.1051 11.405C10.9752 12.535 9.44263 13.1698 7.84462 13.1698C6.24662 13.1698 4.71406 12.535 3.5841 11.405C2.45414 10.2751 1.81934 8.7425 1.81934 7.1445C1.81934 5.54649 2.45414 4.01394 3.5841 2.88398C4.71406 1.75401 6.24662 1.11921 7.84462 1.11921ZM7.09405 8.3332L5.75557 6.99387C5.70759 6.94588 5.65062 6.90782 5.58793 6.88185C5.52523 6.85588 5.45804 6.84252 5.39018 6.84252C5.32232 6.84252 5.25513 6.85588 5.19243 6.88185C5.12974 6.90782 5.07277 6.94588 5.02479 6.99387C4.92788 7.09077 4.87344 7.22221 4.87344 7.35926C4.87344 7.4963 4.92788 7.62774 5.02479 7.72465L6.72909 9.42894C6.77693 9.47717 6.83386 9.51544 6.89657 9.54156C6.95928 9.56768 7.02654 9.58113 7.09448 9.58113C7.16241 9.58113 7.22967 9.56768 7.29238 9.54156C7.3551 9.51544 7.41202 9.47717 7.45987 9.42894L10.989 5.89898C11.0376 5.8512 11.0763 5.79426 11.1028 5.73145C11.1293 5.66864 11.1431 5.6012 11.1434 5.53303C11.1437 5.46486 11.1306 5.3973 11.1046 5.33424C11.0787 5.27119 11.0406 5.21389 10.9924 5.16566C10.9442 5.11742 10.8869 5.0792 10.8239 5.0532C10.7609 5.02721 10.6934 5.01394 10.6252 5.01418C10.557 5.01442 10.4896 5.02815 10.4267 5.05458C10.3639 5.08102 10.3069 5.11963 10.259 5.1682L7.09405 8.3332Z" fill="#075400"/>
</svg>
