<svg width="19" height="14" viewBox="0 0 19 14" fill="none" xmlns="http://www.w3.org/2000/svg">
<path d="M17.2875 6.03812C17.6938 6.56955 17.6938 7.28698 17.2875 7.81755C16.0078 9.48812 12.9375 12.9278 9.35295 12.9278C5.76838 12.9278 2.69809 9.48812 1.41838 7.81755C1.22071 7.56309 1.1134 7.25005 1.1134 6.92783C1.1134 6.60562 1.22071 6.29258 1.41838 6.03812C2.69809 4.36755 5.76838 0.927834 9.35295 0.927834C12.9375 0.927834 16.0078 4.36755 17.2875 6.03812V6.03812Z" stroke="#BDBDBD" stroke-width="1.5" stroke-linecap="round" stroke-linejoin="round"/>
<path d="M9.35304 9.49916C10.7732 9.49916 11.9245 8.34789 11.9245 6.92773C11.9245 5.50757 10.7732 4.3563 9.35304 4.3563C7.93288 4.3563 6.78162 5.50757 6.78162 6.92773C6.78162 8.34789 7.93288 9.49916 9.35304 9.49916Z" stroke="#BDBDBD" stroke-width="1.5" stroke-linecap="round" stroke-linejoin="round"/>
</svg>
