<svg width="24" height="25" viewBox="0 0 24 25" fill="none" xmlns="http://www.w3.org/2000/svg">
<path d="M21.0002 12.9529V11.5289C21.0002 9.14193 20.052 6.85274 18.3642 5.16492C16.6763 3.47709 14.3871 2.52888 12.0002 2.52888C9.61325 2.52888 7.32406 3.47709 5.63623 5.16492C3.94841 6.85274 3.0002 9.14193 3.00019 11.5289V12.9529C1.95135 13.4147 1.093 14.2228 0.568816 15.2419C0.0446374 16.2611 -0.113544 17.4293 0.120752 18.5511C0.355049 19.6729 0.967602 20.6802 1.85586 21.4043C2.74413 22.1285 3.85418 22.5255 5.0002 22.5289H7.0002V12.5289H5.0002V11.5289C5.0002 9.67236 5.73769 7.89188 7.05045 6.57913C8.3632 5.26637 10.1437 4.52888 12.0002 4.52888C13.8567 4.52888 15.6372 5.26637 16.9499 6.57913C18.2627 7.89188 19.0002 9.67236 19.0002 11.5289V12.5289H17.0002V20.5289H13.0002V22.5289H19.0002C20.1462 22.5255 21.2563 22.1285 22.1445 21.4043C23.0328 20.6802 23.6453 19.6729 23.8796 18.5511C24.1139 17.4293 23.9558 16.2611 23.4316 15.2419C22.9074 14.2228 22.049 13.4147 21.0002 12.9529ZM5.0002 20.5289C4.20455 20.5289 3.44148 20.2128 2.87887 19.6502C2.31627 19.0876 2.00019 18.3245 2.00019 17.5289C2.00019 16.7332 2.31627 15.9702 2.87887 15.4076C3.44148 14.8449 4.20455 14.5289 5.0002 14.5289V20.5289ZM19.0002 20.5289V14.5289C19.7958 14.5289 20.5589 14.8449 21.1215 15.4076C21.6841 15.9702 22.0002 16.7332 22.0002 17.5289C22.0002 18.3245 21.6841 19.0876 21.1215 19.6502C20.5589 20.2128 19.7958 20.5289 19.0002 20.5289Z" fill="#1D4791"/>
</svg>
