<svg width="49" height="50" viewBox="0 0 49 50" fill="none" xmlns="http://www.w3.org/2000/svg">
<path d="M24.536 0.919318C11.236 0.919318 0.365964 11.7693 0.355964 25.0293C0.345964 38.4693 11.156 49.3393 24.526 49.3393C37.946 49.3493 48.796 38.5193 48.796 25.1293C48.796 11.7393 37.946 0.909318 24.536 0.919318ZM22.896 7.03932C31.306 6.37932 39.476 11.6993 41.416 19.0393H7.84596C9.07596 13.2093 15.826 7.58932 22.896 7.03932ZM20.406 42.7793C13.136 41.0993 7.37596 34.6493 6.47596 27.1593C6.25596 25.2593 6.54596 24.9293 8.47596 25.2793C12.096 25.9393 15.026 27.8393 17.276 30.6693C19.876 33.9493 21.266 37.7493 21.426 41.6993C21.646 42.9193 21.216 42.9693 20.406 42.7793ZM24.526 28.1293C22.856 28.1093 21.576 26.7993 21.576 25.1293C21.586 23.4593 22.876 22.1493 24.536 22.1393C26.276 22.1193 27.626 23.4793 27.576 25.2293C27.536 26.8793 26.196 28.1493 24.526 28.1293ZM28.546 42.8393C27.896 42.9993 27.626 42.8293 27.666 42.1093C28.036 34.6093 32.596 26.9993 40.336 25.3793C41.256 25.1893 42.926 24.3193 42.706 26.6193C41.916 34.4693 36.506 40.8693 28.546 42.8393Z" fill="#1D4791"/>
</svg>
