<svg width="18" height="25" viewBox="0 0 18 25" fill="none" xmlns="http://www.w3.org/2000/svg">
<path d="M13 0.52887H12.87C12.4225 0.533121 11.989 0.685883 11.6377 0.963169C11.2864 1.24045 11.0371 1.62656 10.929 2.06087C10.8132 2.48371 10.5617 2.85679 10.2132 3.12272C9.86466 3.38866 9.4384 3.5327 9 3.5327C8.5616 3.5327 8.13534 3.38866 7.78681 3.12272C7.43828 2.85679 7.18678 2.48371 7.071 2.06087C6.9629 1.62656 6.71362 1.24045 6.36231 0.963169C6.01099 0.685883 5.57754 0.533121 5.13 0.52887L5 0.52887C3.67441 0.530457 2.40356 1.05775 1.46622 1.99509C0.528882 2.93243 0.00158786 4.20327 0 5.52887V21.5289C0 22.3245 0.316071 23.0876 0.87868 23.6502C1.44129 24.2128 2.20435 24.5289 3 24.5289H5.13C5.57754 24.5246 6.01099 24.3719 6.36231 24.0946C6.71362 23.8173 6.9629 23.4312 7.071 22.9969C7.18678 22.574 7.43828 22.2009 7.78681 21.935C8.13534 21.6691 8.5616 21.525 9 21.525C9.4384 21.525 9.86466 21.6691 10.2132 21.935C10.5617 22.2009 10.8132 22.574 10.929 22.9969C11.0371 23.4312 11.2864 23.8173 11.6377 24.0946C11.989 24.3719 12.4225 24.5246 12.87 24.5289H15C15.7957 24.5289 16.5587 24.2128 17.1213 23.6502C17.6839 23.0876 18 22.3245 18 21.5289V5.52887C17.9984 4.20327 17.4711 2.93243 16.5338 1.99509C15.5964 1.05775 14.3256 0.530457 13 0.52887V0.52887ZM15 22.5289L12.857 22.4659C12.6221 21.6173 12.1138 20.8699 11.4109 20.3396C10.708 19.8094 9.84979 19.5258 8.96933 19.533C8.08887 19.5402 7.23538 19.8377 6.54122 20.3793C5.84706 20.921 5.35101 21.6766 5.13 22.5289H3C2.73478 22.5289 2.48043 22.4235 2.29289 22.236C2.10536 22.0484 2 21.7941 2 21.5289V17.5289H4C4.26522 17.5289 4.51957 17.4235 4.70711 17.236C4.89464 17.0484 5 16.7941 5 16.5289C5 16.2637 4.89464 16.0093 4.70711 15.8218C4.51957 15.6342 4.26522 15.5289 4 15.5289H2V5.52887C2 4.73322 2.31607 3.97016 2.87868 3.40755C3.44129 2.84494 4.20435 2.52887 5 2.52887L5.143 2.59187C5.37722 3.4353 5.881 4.17891 6.57742 4.70922C7.27384 5.23953 8.12466 5.52739 9 5.52887C9.88716 5.52132 10.7476 5.22417 11.4503 4.68263C12.153 4.14109 12.6596 3.38481 12.893 2.52887H13C13.7957 2.52887 14.5587 2.84494 15.1213 3.40755C15.6839 3.97016 16 4.73322 16 5.52887V15.5289H14C13.7348 15.5289 13.4804 15.6342 13.2929 15.8218C13.1054 16.0093 13 16.2637 13 16.5289C13 16.7941 13.1054 17.0484 13.2929 17.236C13.4804 17.4235 13.7348 17.5289 14 17.5289H16V21.5289C16 21.7941 15.8946 22.0484 15.7071 22.236C15.5196 22.4235 15.2652 22.5289 15 22.5289Z" fill="#1D4791"/>
</svg>
