<svg width="126" height="131" viewBox="0 0 126 131" fill="none" xmlns="http://www.w3.org/2000/svg">
<rect width="125.368" height="130.368" rx="62.684" fill="#1D4791"/>
<path d="M45.0744 78.684V54.098H55.2332C55.4722 54.098 55.7795 54.1094 56.1552 54.1321C56.5308 54.1435 56.8779 54.1776 57.1966 54.2346C58.6194 54.4508 59.7918 54.9232 60.7138 55.6517C61.6472 56.3801 62.3358 57.3021 62.7797 58.4176C63.235 59.5217 63.4627 60.751 63.4627 62.1055C63.4627 64.1088 62.9561 65.8332 61.9431 67.2788C60.9301 68.713 59.3764 69.6008 57.282 69.9423L55.5234 70.0959H49.1891V78.684H45.0744ZM59.1943 78.684L54.3454 68.6788L58.5284 67.7569L63.8554 78.684H59.1943ZM49.1891 66.2544H55.0624C55.2901 66.2544 55.5462 66.243 55.8308 66.2202C56.1153 66.1975 56.3771 66.1519 56.6161 66.0836C57.2991 65.9129 57.8341 65.6113 58.2211 65.1787C58.6194 64.7462 58.8983 64.2568 59.0577 63.7104C59.2284 63.1641 59.3138 62.6291 59.3138 62.1055C59.3138 61.5819 59.2284 61.0469 59.0577 60.5006C58.8983 59.9428 58.6194 59.4477 58.2211 59.0152C57.8341 58.5826 57.2991 58.281 56.6161 58.1103C56.3771 58.042 56.1153 58.0021 55.8308 57.9908C55.5462 57.968 55.2901 57.9566 55.0624 57.9566H49.1891V66.2544ZM72.5341 79.1962C70.656 79.1962 69.0909 78.7067 67.8388 77.7278C66.5982 76.749 65.7274 75.4286 65.2266 73.7668L69.2901 72.7936C69.4153 73.4879 69.7795 74.0855 70.3828 74.5863C70.9861 75.0871 71.6519 75.3375 72.3804 75.3375C72.8585 75.3375 73.365 75.2123 73.9 74.9619C74.4349 74.7001 74.8333 74.2847 75.0951 73.7155C75.2545 73.3513 75.3455 72.9188 75.3683 72.4179C75.4024 71.9057 75.4195 71.3139 75.4195 70.6423V54.098H79.5855V70.6423C79.5855 71.4049 79.5798 72.0765 79.5684 72.657C79.5684 73.2261 79.5115 73.7668 79.3977 74.279C79.2952 74.7798 79.0847 75.2977 78.7659 75.8327C78.0944 76.9937 77.2179 77.8474 76.1366 78.3937C75.0553 78.9287 73.8544 79.1962 72.5341 79.1962Z" fill="white"/>
</svg>
