<svg width="48" height="48" viewBox="0 0 48 48" fill="none" xmlns="http://www.w3.org/2000/svg">
<rect width="48" height="48" rx="24" fill="#F7F7F7"/>
<path d="M24 24C24.55 24 25.021 23.804 25.413 23.412C25.8043 23.0207 26 22.55 26 22C26 21.45 25.8043 20.979 25.413 20.587C25.021 20.1957 24.55 20 24 20C23.45 20 22.9793 20.1957 22.588 20.587C22.196 20.979 22 21.45 22 22C22 22.55 22.196 23.0207 22.588 23.412C22.9793 23.804 23.45 24 24 24ZM24 31.35C26.0333 29.4833 27.5417 27.7873 28.525 26.262C29.5083 24.7373 30 23.3833 30 22.2C30 20.3833 29.4207 18.8957 28.262 17.737C27.104 16.579 25.6833 16 24 16C22.3167 16 20.8957 16.579 19.737 17.737C18.579 18.8957 18 20.3833 18 22.2C18 23.3833 18.4917 24.7373 19.475 26.262C20.4583 27.7873 21.9667 29.4833 24 31.35ZM24 34C21.3167 31.7167 19.3127 29.5957 17.988 27.637C16.6627 25.679 16 23.8667 16 22.2C16 19.7 16.8043 17.7083 18.413 16.225C20.021 14.7417 21.8833 14 24 14C26.1167 14 27.979 14.7417 29.587 16.225C31.1957 17.7083 32 19.7 32 22.2C32 23.8667 31.3377 25.679 30.013 27.637C28.6877 29.5957 26.6833 31.7167 24 34Z" fill="#1D4791"/>
</svg>
