<svg width="31" height="31" viewBox="0 0 31 31" fill="none" xmlns="http://www.w3.org/2000/svg">
<path d="M23.5938 12.5067C23.5938 10.269 22.7048 8.12284 21.1225 6.5405C19.5401 4.95816 17.394 4.06921 15.1562 4.06921C12.9185 4.06921 10.7724 4.95816 9.19004 6.5405C7.6077 8.12284 6.71875 10.269 6.71875 12.5067C6.71875 15.968 9.48812 20.4792 15.1562 25.883C20.8244 20.4792 23.5938 15.968 23.5938 12.5067ZM15.1562 28.4442C8.28062 22.1948 4.84375 16.8811 4.84375 12.5067C4.84375 9.77167 5.93024 7.14864 7.86421 5.21468C9.79818 3.28071 12.4212 2.19421 15.1562 2.19421C17.8913 2.19421 20.5143 3.28071 22.4483 5.21468C24.3823 7.14864 25.4688 9.77167 25.4688 12.5067C25.4688 16.8811 22.0319 22.1948 15.1562 28.4442Z" fill="#1D4791"/>
<path d="M15.1567 15.3192C15.9027 15.3192 16.618 15.0229 17.1455 14.4955C17.6729 13.968 17.9692 13.2526 17.9692 12.5067C17.9692 11.7608 17.6729 11.0454 17.1455 10.518C16.618 9.99053 15.9027 9.69421 15.1567 9.69421C14.4108 9.69421 13.6954 9.99053 13.168 10.518C12.6406 11.0454 12.3442 11.7608 12.3442 12.5067C12.3442 13.2526 12.6406 13.968 13.168 14.4955C13.6954 15.0229 14.4108 15.3192 15.1567 15.3192ZM15.1567 17.1942C13.9135 17.1942 12.7213 16.7004 11.8422 15.8213C10.9631 14.9422 10.4692 13.7499 10.4692 12.5067C10.4692 11.2635 10.9631 10.0712 11.8422 9.19215C12.7213 8.31307 13.9135 7.81921 15.1567 7.81921C16.3999 7.81921 17.5922 8.31307 18.4713 9.19215C19.3504 10.0712 19.8442 11.2635 19.8442 12.5067C19.8442 13.7499 19.3504 14.9422 18.4713 15.8213C17.5922 16.7004 16.3999 17.1942 15.1567 17.1942Z" fill="#1D4791"/>
</svg>
