<svg width="20" height="20" viewBox="0 0 20 20" fill="none" xmlns="http://www.w3.org/2000/svg">
<path d="M1.66602 20C1.4008 20 1.14645 19.8946 0.958909 19.7071C0.771373 19.5196 0.666016 19.2652 0.666016 19V1C0.666016 0.734784 0.771373 0.48043 0.958909 0.292893C1.14645 0.105357 1.4008 0 1.66602 0H15.666C15.9312 0 16.1856 0.105357 16.3731 0.292893C16.5607 0.48043 16.666 0.734784 16.666 1V4H14.666V2H2.66602V18H14.666V16H16.666V19C16.666 19.2652 16.5607 19.5196 16.3731 19.7071C16.1856 19.8946 15.9312 20 15.666 20H1.66602ZM14.666 14V11H7.66602V9H14.666V6L19.666 10L14.666 14Z" fill="#FF4545"/>
</svg>
