<svg width="8" height="14" viewBox="0 0 8 14" fill="none" xmlns="http://www.w3.org/2000/svg">
<path d="M0.639253 13.1789C0.457233 12.9968 0.35498 12.7499 0.35498 12.4925C0.35498 12.235 0.457233 11.9881 0.639253 11.806L5.44531 6.99999L0.639253 2.19393C0.462392 2.01082 0.364528 1.76556 0.36674 1.51099C0.368953 1.25642 0.471063 1.0129 0.65108 0.83288C0.831096 0.652864 1.07462 0.550754 1.32919 0.548542C1.58376 0.546329 1.82902 0.644193 2.01213 0.821054L7.50463 6.31355C7.68665 6.49562 7.7889 6.74254 7.7889 6.99999C7.7889 7.25744 7.68665 7.50435 7.50463 7.68643L2.01213 13.1789C1.83006 13.3609 1.58315 13.4632 1.32569 13.4632C1.06824 13.4632 0.821327 13.3609 0.639253 13.1789Z" fill="#40331F"/>
</svg>
