<svg width="21" height="20" viewBox="0 0 21 20" fill="none" xmlns="http://www.w3.org/2000/svg">
<path d="M4.5035 2.94142V3.99999H3.64293C2.73361 3.99999 1.86154 4.36122 1.21856 5.0042C0.575579 5.64718 0.214355 6.51925 0.214355 7.42857V13.4286C0.214355 14.1106 0.485273 14.7646 0.96751 15.2468C1.44975 15.7291 2.1038 16 2.78578 16H4.50007V16.8571C4.50007 17.5391 4.77099 18.1932 5.25322 18.6754C5.73546 19.1576 6.38951 19.4286 7.0715 19.4286H13.9286C14.6106 19.4286 15.2647 19.1576 15.7469 18.6754C16.2292 18.1932 16.5001 17.5391 16.5001 16.8571V16H18.2144C18.8963 16 19.5504 15.7291 20.0326 15.2468C20.5149 14.7646 20.7858 14.1106 20.7858 13.4286V7.42857C20.7858 6.51925 20.4246 5.64718 19.7816 5.0042C19.1386 4.36122 18.2665 3.99999 17.3572 3.99999H16.5001V2.93028C16.5001 2.62045 16.439 2.31365 16.3203 2.02745C16.2016 1.74124 16.0277 1.48124 15.8085 1.26232C15.5892 1.04339 15.329 0.869835 15.0426 0.75158C14.7562 0.633324 14.4493 0.572687 14.1395 0.573138L6.85721 0.584281C6.23265 0.585189 5.63399 0.833931 5.19268 1.27588C4.75137 1.71783 4.5035 2.31686 4.5035 2.94142ZM15.2144 2.93028V3.99999H5.78921V2.94142C5.78921 2.34999 6.2675 1.87085 6.85893 1.86999L14.1412 1.85885C14.2821 1.85863 14.4216 1.88617 14.5518 1.93992C14.6819 1.99366 14.8003 2.07255 14.8999 2.17206C14.9996 2.27157 15.0787 2.38976 15.1326 2.51987C15.1866 2.64997 15.2144 2.78943 15.2144 2.93028ZM7.0715 11.2857H13.9286C14.2696 11.2857 14.5967 11.4212 14.8378 11.6623C15.0789 11.9034 15.2144 12.2304 15.2144 12.5714V16.8571C15.2144 17.1981 15.0789 17.5252 14.8378 17.7663C14.5967 18.0074 14.2696 18.1429 13.9286 18.1429H7.0715C6.73051 18.1429 6.40348 18.0074 6.16236 17.7663C5.92124 17.5252 5.78578 17.1981 5.78578 16.8571V12.5714C5.78578 12.2304 5.92124 11.9034 6.16236 11.6623C6.40348 11.4212 6.73051 11.2857 7.0715 11.2857Z" fill="white"/>
</svg>
