<svg width="24" height="24" viewBox="0 0 24 24" fill="none" xmlns="http://www.w3.org/2000/svg">
<path d="M23.8357 9.32285C23.6312 8.67175 23.2225 8.10376 22.6702 7.70288C22.1178 7.302 21.4511 7.08952 20.7687 7.09685H16.3997L15.0727 2.96085C14.864 2.30981 14.454 1.74186 13.9017 1.33892C13.3494 0.935967 12.6834 0.718838 11.9997 0.718838C11.316 0.718838 10.65 0.935967 10.0977 1.33892C9.54544 1.74186 9.13538 2.30981 8.9267 2.96085L7.5997 7.09685H3.2307C2.55045 7.09782 1.8879 7.31373 1.33768 7.71376C0.787473 8.11378 0.377745 8.67744 0.167026 9.32424C-0.0436933 9.97104 -0.044626 10.6679 0.164361 11.3152C0.373348 11.9626 0.781565 12.5274 1.3307 12.9289L4.8867 15.5289L3.5347 19.7159C3.31622 20.3652 3.31345 21.0679 3.52681 21.7189C3.74018 22.37 4.15825 22.9347 4.7187 23.3288C5.26956 23.7356 5.9371 23.9535 6.62186 23.9501C7.30662 23.9467 7.97195 23.7221 8.5187 23.3099L11.9997 20.7479L15.4817 23.3069C16.0316 23.7113 16.6955 23.931 17.3781 23.9343C18.0606 23.9376 18.7267 23.7244 19.2805 23.3254C19.8342 22.9263 20.2472 22.3619 20.46 21.7133C20.6728 21.0648 20.6744 20.3654 20.4647 19.7159L19.1127 15.5289L22.6727 12.9289C23.2281 12.5324 23.6411 11.9676 23.8506 11.3182C24.06 10.6687 24.0548 9.96911 23.8357 9.32285ZM21.4927 11.3139L17.3487 14.3429C17.1785 14.467 17.0518 14.6418 16.9868 14.8422C16.9218 15.0426 16.9218 15.2584 16.9867 15.4589L18.5617 20.3288C18.6414 20.5759 18.6407 20.8418 18.5598 21.0884C18.4788 21.335 18.3217 21.5495 18.1111 21.7012C17.9005 21.8529 17.6473 21.9339 17.3877 21.9326C17.1282 21.9313 16.8757 21.8477 16.6667 21.6939L12.5917 18.6939C12.4201 18.5678 12.2127 18.4998 11.9997 18.4998C11.7867 18.4998 11.5793 18.5678 11.4077 18.6939L7.3327 21.6939C7.12379 21.8498 6.87064 21.9351 6.60997 21.9375C6.3493 21.9398 6.09465 21.8591 5.88293 21.707C5.67122 21.5549 5.51345 21.3393 5.4325 21.0915C5.35155 20.8437 5.35162 20.5766 5.4327 20.3288L7.0127 15.4589C7.07762 15.2584 7.07757 15.0426 7.01257 14.8422C6.94756 14.6418 6.82092 14.467 6.6507 14.3429L2.5067 11.3139C2.29801 11.161 2.14294 10.9462 2.06365 10.7C1.98435 10.4538 1.98489 10.1888 2.06519 9.94295C2.14548 9.69707 2.30143 9.48286 2.51075 9.3309C2.72006 9.17895 2.97205 9.09703 3.2307 9.09685H8.3307C8.54242 9.09684 8.74867 9.02964 8.91975 8.90493C9.09084 8.78021 9.21792 8.60441 9.2827 8.40285L10.8327 3.57185C10.9123 3.32464 11.0682 3.10904 11.2781 2.9561C11.488 2.80316 11.741 2.72076 12.0007 2.72076C12.2604 2.72076 12.5134 2.80316 12.7233 2.9561C12.9332 3.10904 13.0891 3.32464 13.1687 3.57185L14.7187 8.40285C14.7835 8.60441 14.9106 8.78021 15.0817 8.90493C15.2527 9.02964 15.459 9.09684 15.6707 9.09685H20.7707C21.0294 9.09703 21.2813 9.17895 21.4907 9.3309C21.7 9.48286 21.8559 9.69707 21.9362 9.94295C22.0165 10.1888 22.0171 10.4538 21.9378 10.7C21.8585 10.9462 21.7034 11.161 21.4947 11.3139H21.4927Z" fill="#1D4791"/>
</svg>
