<svg width="352" height="182" viewBox="0 0 352 182" fill="none" xmlns="http://www.w3.org/2000/svg">
<g clip-path="url(#clip0_76_955)">
<path d="M167.999 65.7373C185.087 65.7373 198.94 51.8847 198.94 34.7966C198.94 17.7086 185.087 3.85596 167.999 3.85596C150.911 3.85596 137.059 17.7086 137.059 34.7966C137.059 51.8847 150.911 65.7373 167.999 65.7373Z" fill="#1B1B25"/>
<path d="M164.737 62.4747C181.825 62.4747 195.677 48.6221 195.677 31.5341C195.677 14.446 181.825 0.593384 164.737 0.593384C147.649 0.593384 133.796 14.446 133.796 31.5341C133.796 48.6221 147.649 62.4747 164.737 62.4747Z" fill="#FFB54A"/>
<path d="M164.737 56.5149C150.997 56.5149 139.815 45.3381 139.815 31.5933C139.815 17.8538 150.992 6.67169 164.737 6.67169C178.476 6.67169 189.658 17.8485 189.658 31.5933C189.653 45.3327 178.476 56.5149 164.737 56.5149ZM164.737 8.29221C151.885 8.29221 141.43 18.7475 141.43 31.5987C141.43 44.4498 151.885 54.9051 164.737 54.9051C177.588 54.9051 188.043 44.4498 188.043 31.5987C188.038 18.7422 177.582 8.29221 164.737 8.29221Z" fill="#FCF0E3"/>
<path d="M162.912 42.7647C161.356 42.5709 159.859 42.1832 158.411 41.5964C156.962 41.0096 155.643 40.2612 154.448 39.3567L157.248 35.2704C158.228 36.0134 159.181 36.6272 160.101 37.1171C161.022 37.607 162.018 37.9623 163.095 38.1723V32.4709C161.803 32.1102 160.672 31.7171 159.708 31.2864C158.739 30.8557 157.937 30.3443 157.307 29.7467C156.672 29.1491 156.198 28.4492 155.875 27.647C155.552 26.8448 155.39 25.9188 155.39 24.8689V24.799C155.39 23.7976 155.568 22.8877 155.929 22.0748C156.29 21.2618 156.796 20.5565 157.452 19.9589C158.109 19.3613 158.906 18.8768 159.837 18.5053C160.769 18.1338 161.797 17.8915 162.922 17.7677V15.6896H166.653V17.8431C167.945 18.0369 169.135 18.3492 170.223 18.796C171.31 19.2375 172.344 19.8082 173.324 20.4973L170.923 24.6913C170.207 24.2121 169.474 23.7868 168.737 23.4207C167.994 23.0492 167.24 22.7693 166.476 22.5755V27.9915C169.2 28.7345 171.181 29.7036 172.409 30.8988C173.641 32.094 174.255 33.6984 174.255 35.7065V35.7765C174.255 36.7833 174.072 37.6878 173.701 38.5007C173.329 39.3137 172.818 40.0189 172.156 40.6165C171.499 41.2141 170.702 41.7041 169.771 42.0863C168.839 42.4686 167.8 42.7216 166.648 42.8401V46.388H162.917V42.7647H162.912ZM163.095 22.2524C162.233 22.3709 161.609 22.6293 161.21 23.0223C160.817 23.4153 160.618 23.8999 160.618 24.4759V24.5459C160.618 25.0951 160.785 25.5688 161.119 25.9619C161.453 26.3549 162.109 26.7317 163.089 27.0925V22.2524H163.095ZM166.465 38.3554C168.161 38.0916 169.011 37.327 169.011 36.0619V35.9919C169.011 35.3727 168.834 34.8613 168.473 34.4683C168.112 34.0752 167.445 33.6984 166.465 33.3377V38.3554Z" fill="#1B1B25"/>
<path d="M167.999 65.7373C185.087 65.7373 198.94 51.8847 198.94 34.7966C198.94 17.7086 185.087 3.85596 167.999 3.85596C150.911 3.85596 137.059 17.7086 137.059 34.7966C137.059 51.8847 150.911 65.7373 167.999 65.7373Z" fill="#1B1B25"/>
<path d="M164.737 62.4747C181.825 62.4747 195.677 48.6221 195.677 31.5341C195.677 14.446 181.825 0.593384 164.737 0.593384C147.649 0.593384 133.796 14.446 133.796 31.5341C133.796 48.6221 147.649 62.4747 164.737 62.4747Z" fill="#FFB54A"/>
<path d="M164.737 56.5149C150.997 56.5149 139.815 45.3381 139.815 31.5933C139.815 17.8538 150.992 6.67169 164.737 6.67169C178.476 6.67169 189.658 17.8485 189.658 31.5933C189.653 45.3327 178.476 56.5149 164.737 56.5149ZM164.737 8.29221C151.885 8.29221 141.43 18.7475 141.43 31.5987C141.43 44.4498 151.885 54.9051 164.737 54.9051C177.588 54.9051 188.043 44.4498 188.043 31.5987C188.038 18.7422 177.582 8.29221 164.737 8.29221Z" fill="#FCF0E3"/>
<path d="M162.912 42.7647C161.356 42.5709 159.859 42.1832 158.411 41.5964C156.962 41.0096 155.643 40.2612 154.448 39.3567L157.248 35.2704C158.228 36.0134 159.181 36.6272 160.101 37.1171C161.022 37.607 162.018 37.9623 163.095 38.1723V32.4709C161.803 32.1102 160.672 31.7171 159.708 31.2864C158.739 30.8557 157.937 30.3443 157.307 29.7467C156.672 29.1491 156.198 28.4492 155.875 27.647C155.552 26.8448 155.39 25.9188 155.39 24.8689V24.799C155.39 23.7976 155.568 22.8877 155.929 22.0748C156.29 21.2618 156.796 20.5565 157.452 19.9589C158.109 19.3613 158.906 18.8768 159.837 18.5053C160.769 18.1338 161.797 17.8915 162.922 17.7677V15.6896H166.653V17.8431C167.945 18.0369 169.135 18.3492 170.223 18.796C171.31 19.2375 172.344 19.8082 173.324 20.4973L170.923 24.6913C170.207 24.2121 169.474 23.7868 168.737 23.4207C167.994 23.0492 167.24 22.7693 166.476 22.5755V27.9915C169.2 28.7345 171.181 29.7036 172.409 30.8988C173.641 32.094 174.255 33.6984 174.255 35.7065V35.7765C174.255 36.7833 174.072 37.6878 173.701 38.5007C173.329 39.3137 172.818 40.0189 172.156 40.6165C171.499 41.2141 170.702 41.7041 169.771 42.0863C168.839 42.4686 167.8 42.7216 166.648 42.8401V46.388H162.917V42.7647H162.912ZM163.095 22.2524C162.233 22.3709 161.609 22.6293 161.21 23.0223C160.817 23.4153 160.618 23.8999 160.618 24.4759V24.5459C160.618 25.0951 160.785 25.5688 161.119 25.9619C161.453 26.3549 162.109 26.7317 163.089 27.0925V22.2524H163.095ZM166.465 38.3554C168.161 38.0916 169.011 37.327 169.011 36.0619V35.9919C169.011 35.3727 168.834 34.8613 168.473 34.4683C168.112 34.0752 167.445 33.6984 166.465 33.3377V38.3554Z" fill="#1B1B25"/>
<path d="M133.904 31.211C141.634 31.211 147.902 24.944 147.902 17.2131C147.902 9.48233 141.634 3.21527 133.904 3.21527C126.173 3.21527 119.906 9.48233 119.906 17.2131C119.906 24.944 126.173 31.211 133.904 31.211Z" fill="#1B1B25"/>
<path d="M132.429 29.7359C140.159 29.7359 146.426 23.4688 146.426 15.738C146.426 8.00717 140.159 1.74011 132.429 1.74011C124.698 1.74011 118.431 8.00717 118.431 15.738C118.431 23.4688 124.698 29.7359 132.429 29.7359Z" fill="#FFB54A"/>
<path d="M132.428 27.0385C126.21 27.0385 121.155 21.9778 121.155 15.7649C121.155 9.5466 126.216 4.49121 132.428 4.49121C138.647 4.49121 143.702 9.55198 143.702 15.7649C143.708 21.9832 138.647 27.0385 132.428 27.0385ZM132.428 5.21802C126.614 5.21802 121.882 9.95038 121.882 15.7649C121.882 21.5794 126.614 26.3117 132.428 26.3117C138.243 26.3117 142.975 21.5794 142.975 15.7649C142.975 9.95038 138.243 5.21802 132.428 5.21802Z" fill="#FCF0E3"/>
<path d="M131.605 20.8203C130.899 20.7342 130.221 20.5565 129.57 20.2927C128.913 20.0289 128.315 19.6897 127.777 19.2805L129.042 17.4285C129.484 17.7623 129.914 18.0423 130.334 18.263C130.749 18.4837 131.201 18.6453 131.691 18.7422V16.1633C131.109 16.0018 130.598 15.8241 130.157 15.6249C129.72 15.4311 129.354 15.1996 129.069 14.925C128.784 14.6559 128.568 14.3382 128.418 13.9775C128.272 13.6168 128.197 13.1968 128.197 12.7177V12.6854C128.197 12.2331 128.278 11.8186 128.439 11.4525C128.601 11.0864 128.832 10.7634 129.128 10.4942C129.424 10.225 129.785 10.0043 130.205 9.83736C130.625 9.67046 131.093 9.5574 131.599 9.50357V8.5614H133.284V9.53587C133.866 9.62201 134.404 9.76737 134.9 9.96657C135.39 10.1658 135.858 10.4242 136.305 10.7365L135.217 12.6369C134.894 12.4216 134.56 12.2278 134.227 12.0609C133.893 11.894 133.548 11.7648 133.204 11.6786V14.1282C134.437 14.462 135.33 14.9035 135.89 15.4419C136.445 15.9857 136.725 16.7071 136.725 17.6169V17.6493C136.725 18.1015 136.639 18.516 136.472 18.8821C136.305 19.2482 136.073 19.5713 135.772 19.8405C135.476 20.1096 135.115 20.3304 134.695 20.508C134.275 20.6803 133.801 20.7934 133.284 20.8472V22.4516H131.599V20.8203H131.605ZM131.685 11.5386C131.298 11.5925 131.013 11.7109 130.835 11.8886C130.657 12.0663 130.566 12.287 130.566 12.5454V12.5777C130.566 12.8254 130.641 13.0407 130.792 13.2184C130.943 13.3961 131.239 13.5683 131.685 13.7298V11.5386ZM133.214 18.8229C133.984 18.7045 134.367 18.3599 134.367 17.7838V17.7515C134.367 17.4716 134.286 17.2401 134.124 17.0624C133.963 16.8848 133.661 16.7125 133.214 16.551V18.8229Z" fill="#1B1B25"/>
<path d="M116.616 40.8749C116.616 37.5154 113.892 34.7966 110.538 34.7966C113.898 34.7966 116.616 32.0724 116.616 28.7183C116.616 32.0778 119.341 34.7966 122.695 34.7966C119.341 34.7966 116.616 37.5208 116.616 40.8749Z" fill="white"/>
<path d="M188.038 71.4442C188.038 68.9784 186.04 66.981 183.575 66.981C186.04 66.981 188.038 64.9836 188.038 62.5178C188.038 64.9836 190.035 66.981 192.501 66.981C190.041 66.9756 188.038 68.9784 188.038 71.4442Z" fill="white"/>
<path d="M158.858 92.947C158.858 88.4138 155.181 84.7367 150.647 84.7367C155.181 84.7367 158.858 81.0596 158.858 76.5264C158.858 81.0596 162.535 84.7367 167.068 84.7367C162.529 84.7367 158.858 88.4085 158.858 92.947Z" fill="white"/>
<path d="M187.198 29.6013C187.198 25.3535 183.752 21.9079 179.504 21.9079C183.752 21.9079 187.198 18.4622 187.198 14.2144C187.198 18.4622 190.643 21.9079 194.891 21.9079C190.643 21.9079 187.198 25.3481 187.198 29.6013Z" fill="#FCF0E3"/>
<path d="M212.916 34.7966C212.916 32.4547 211.016 30.5542 208.674 30.5542C211.016 30.5542 212.916 28.6537 212.916 26.3118C212.916 28.6537 214.817 30.5542 217.159 30.5542C214.817 30.5542 212.916 32.4547 212.916 34.7966Z" fill="white"/>
<path d="M82.8711 20.6373H35.6013C30.7398 20.6373 26.7988 24.5782 26.7988 29.4398C26.7988 34.3013 30.7398 38.2423 35.6013 38.2423H74.5585L79.9154 43.1254V38.2423H82.8711C87.7326 38.2423 91.6736 34.3013 91.6736 29.4398C91.6736 24.5782 87.7326 20.6373 82.8711 20.6373Z" fill="#4E69FF"/>
<path d="M39.865 28.2284C40.4788 27.7169 40.8718 26.947 40.8718 26.0802C40.8718 24.5405 39.6228 23.2914 38.083 23.2914C36.5432 23.2914 35.2942 24.5405 35.2942 26.0802C35.2942 26.9417 35.6872 27.7169 36.301 28.2284C34.3197 28.9552 32.9092 30.8503 32.9092 33.0846C32.9092 35.9434 43.2622 35.9434 43.2622 33.0846C43.2568 30.8503 41.8463 28.9552 39.865 28.2284Z" fill="#FFB54A"/>
<path d="M83.4634 25.3696H49.5939C49.4432 25.3696 49.3247 25.2512 49.3247 25.1004C49.3247 24.9497 49.4432 24.8312 49.5939 24.8312H83.4634C83.6141 24.8312 83.7325 24.9497 83.7325 25.1004C83.7325 25.2512 83.6141 25.3696 83.4634 25.3696Z" fill="white"/>
<path d="M78.2088 33.3161H49.5939C49.4432 33.3161 49.3247 33.1976 49.3247 33.0469C49.3247 32.8962 49.4432 32.7777 49.5939 32.7777H78.2088C78.3595 32.7777 78.478 32.8962 78.478 33.0469C78.478 33.1976 78.3595 33.3161 78.2088 33.3161Z" fill="white"/>
<path d="M70.4184 29.5959H49.5939C49.4432 29.5959 49.3247 29.4774 49.3247 29.3267C49.3247 29.1759 49.4432 29.0575 49.5939 29.0575H70.4184C70.5692 29.0575 70.6876 29.1759 70.6876 29.3267C70.6876 29.472 70.5638 29.5959 70.4184 29.5959Z" fill="white"/>
<path d="M83.4633 29.5959H73.0133C72.8626 29.5959 72.7441 29.4774 72.7441 29.3267C72.7441 29.1759 72.8626 29.0575 73.0133 29.0575H83.4633C83.614 29.0575 83.7325 29.1759 83.7325 29.3267C83.7325 29.472 83.614 29.5959 83.4633 29.5959Z" fill="white"/>
<path d="M41.4319 32.277C41.2273 32.277 41.0173 32.1963 40.8612 32.0401L38.8315 30.0105C38.5139 29.6928 38.5139 29.1813 38.8315 28.8691C39.1491 28.5514 39.6606 28.5514 39.9729 28.8691L41.4319 30.3281L45.3459 26.4141C45.6635 26.0964 46.175 26.0964 46.4873 26.4141C46.8049 26.7317 46.8049 27.2432 46.4873 27.5554L42.0026 32.0401C41.8464 32.1963 41.6418 32.277 41.4319 32.277Z" fill="white"/>
<path d="M293.695 66.4803H342.192C347.178 66.4803 351.226 70.5235 351.226 75.5143C351.226 80.4997 347.183 84.5483 342.192 84.5483H302.223L296.726 89.5606V84.5483H293.695C288.71 84.5483 284.661 80.5051 284.661 75.5143C284.667 70.5235 288.71 66.4803 293.695 66.4803Z" fill="#FFB54A"/>
<path d="M341.11 74.1845C341.724 73.673 342.117 72.9032 342.117 72.0364C342.117 70.4966 340.868 69.2476 339.328 69.2476C337.788 69.2476 336.539 70.4966 336.539 72.0364C336.539 72.8978 336.932 73.673 337.546 74.1845C335.565 74.9113 334.154 76.8064 334.154 79.0407C334.154 81.8995 344.507 81.8995 344.507 79.0407C344.502 76.8064 343.091 74.9113 341.11 74.1845Z" fill="#4E69FF"/>
<path d="M345.358 75.735H344.023V74.3998C344.023 74.2545 343.905 74.136 343.759 74.136H342.537C342.392 74.136 342.273 74.2545 342.273 74.3998V75.735H340.938C340.793 75.735 340.674 75.8535 340.674 75.9988V77.221C340.674 77.3663 340.793 77.4848 340.938 77.4848H342.273V78.8199C342.273 78.9653 342.392 79.0837 342.537 79.0837H343.759C343.905 79.0837 344.023 78.9653 344.023 78.8199V77.4848H345.358C345.504 77.4848 345.622 77.3663 345.622 77.221V75.9988C345.622 75.8535 345.504 75.735 345.358 75.735Z" fill="white"/>
<path d="M329.917 71.8641H296.048C295.897 71.8641 295.779 71.7456 295.779 71.5949C295.779 71.4441 295.897 71.3257 296.048 71.3257H329.917C330.068 71.3257 330.187 71.4441 330.187 71.5949C330.187 71.7456 330.068 71.8641 329.917 71.8641Z" fill="white"/>
<path d="M324.663 79.8159H296.048C295.897 79.8159 295.779 79.6975 295.779 79.5467C295.779 79.396 295.897 79.2775 296.048 79.2775H324.663C324.814 79.2775 324.932 79.396 324.932 79.5467C324.932 79.6921 324.814 79.8159 324.663 79.8159Z" fill="white"/>
<path d="M316.873 76.0903H296.048C295.897 76.0903 295.779 75.9719 295.779 75.8211C295.779 75.6704 295.897 75.5519 296.048 75.5519H316.873C317.023 75.5519 317.142 75.6704 317.142 75.8211C317.142 75.9719 317.018 76.0903 316.873 76.0903Z" fill="white"/>
<path d="M329.917 76.0903H319.467C319.317 76.0903 319.198 75.9719 319.198 75.8211C319.198 75.6704 319.317 75.5519 319.467 75.5519H329.917C330.068 75.5519 330.187 75.6704 330.187 75.8211C330.187 75.9719 330.068 76.0903 329.917 76.0903Z" fill="white"/>
<path d="M232.734 14.4136H266.141C269.576 14.4136 272.365 17.197 272.365 20.6372C272.365 24.0775 269.581 26.8609 266.141 26.8609H234.818H232.729C229.294 26.8609 226.505 24.0775 226.505 20.6372C226.505 17.197 229.3 14.4136 232.734 14.4136Z" fill="#4E69FF"/>
<path d="M262.372 18.5914H236.471C236.32 18.5914 236.202 18.473 236.202 18.3222C236.202 18.1715 236.32 18.053 236.471 18.053H262.372C262.523 18.053 262.641 18.1715 262.641 18.3222C262.641 18.4676 262.523 18.5914 262.372 18.5914Z" fill="white"/>
<path d="M258.356 23.2969H236.471C236.32 23.2969 236.202 23.1784 236.202 23.0277C236.202 22.8769 236.32 22.7585 236.471 22.7585H258.356C258.507 22.7585 258.625 22.8769 258.625 23.0277C258.625 23.1784 258.507 23.2969 258.356 23.2969Z" fill="white"/>
<path d="M252.396 21.0949H236.471C236.32 21.0949 236.202 20.9765 236.202 20.8257C236.202 20.675 236.32 20.5565 236.471 20.5565H252.396C252.547 20.5565 252.665 20.675 252.665 20.8257C252.665 20.9711 252.547 21.0949 252.396 21.0949Z" fill="white"/>
<path d="M262.373 21.0949H254.383C254.232 21.0949 254.114 20.9765 254.114 20.8257C254.114 20.675 254.232 20.5565 254.383 20.5565H262.373C262.523 20.5565 262.642 20.675 262.642 20.8257C262.642 20.9711 262.523 21.0949 262.373 21.0949Z" fill="white"/>
<path d="M6.30798 102.616H36.0158C39.0684 102.616 41.5503 105.093 41.5503 108.151C41.5503 111.209 39.0738 113.685 36.0158 113.685H8.16001H6.3026C3.24998 113.68 0.773438 111.203 0.773438 108.151C0.773438 105.093 3.24998 102.616 6.30798 102.616Z" fill="#FFB54A"/>
<path d="M32.6561 106.363H9.62417C9.47342 106.363 9.35498 106.245 9.35498 106.094C9.35498 105.944 9.47342 105.825 9.62417 105.825H32.6561C32.8068 105.825 32.9252 105.944 32.9252 106.094C32.9252 106.24 32.8068 106.363 32.6561 106.363Z" fill="white"/>
<path d="M29.0866 110.547H9.62417C9.47342 110.547 9.35498 110.428 9.35498 110.277C9.35498 110.127 9.47342 110.008 9.62417 110.008H29.0812C29.232 110.008 29.3504 110.127 29.3504 110.277C29.3504 110.428 29.232 110.547 29.0866 110.547Z" fill="white"/>
<path d="M23.7836 108.587H9.62417C9.47342 108.587 9.35498 108.469 9.35498 108.318C9.35498 108.167 9.47342 108.049 9.62417 108.049H23.7836C23.9343 108.049 24.0527 108.167 24.0527 108.318C24.0527 108.469 23.9343 108.587 23.7836 108.587Z" fill="white"/>
<path d="M32.6561 108.587H25.5495C25.3987 108.587 25.2803 108.469 25.2803 108.318C25.2803 108.167 25.3987 108.049 25.5495 108.049H32.6561C32.8068 108.049 32.9253 108.167 32.9253 108.318C32.9253 108.469 32.8068 108.587 32.6561 108.587Z" fill="white"/>
<path d="M225.864 132.534H173.082C172.931 132.534 172.812 132.416 172.812 132.265C172.812 132.114 172.931 131.996 173.082 131.996H225.864C226.015 131.996 226.134 132.114 226.134 132.265C226.134 132.41 226.015 132.534 225.864 132.534Z" fill="white"/>
<path d="M225.865 144.917H181.271C181.12 144.917 181.001 144.798 181.001 144.648C181.001 144.497 181.12 144.378 181.271 144.378H225.865C226.015 144.378 226.134 144.497 226.134 144.648C226.134 144.798 226.015 144.917 225.865 144.917Z" fill="white"/>
<path d="M225.864 139.118H193.416C193.265 139.118 193.147 139 193.147 138.849C193.147 138.699 193.265 138.58 193.416 138.58H225.864C226.015 138.58 226.133 138.699 226.133 138.849C226.133 139 226.015 139.118 225.864 139.118Z" fill="white"/>
<path d="M189.373 139.118H173.087C172.936 139.118 172.818 139 172.818 138.849C172.818 138.699 172.936 138.58 173.087 138.58H189.373C189.524 138.58 189.642 138.699 189.642 138.849C189.642 139 189.518 139.118 189.373 139.118Z" fill="white"/>
<path d="M166.169 152.18H113.386C113.236 152.18 113.117 152.061 113.117 151.91C113.117 151.76 113.236 151.641 113.386 151.641H166.169C166.32 151.641 166.438 151.76 166.438 151.91C166.438 152.056 166.32 152.18 166.169 152.18Z" fill="white"/>
<path d="M157.986 164.562H113.392C113.241 164.562 113.123 164.444 113.123 164.293C113.123 164.142 113.241 164.024 113.392 164.024H157.986C158.136 164.024 158.255 164.142 158.255 164.293C158.255 164.444 158.131 164.562 157.986 164.562Z" fill="white"/>
<path d="M145.84 158.764H113.392C113.241 158.764 113.123 158.646 113.123 158.495C113.123 158.344 113.241 158.226 113.392 158.226H145.84C145.991 158.226 146.109 158.344 146.109 158.495C146.109 158.64 145.991 158.764 145.84 158.764Z" fill="white"/>
<path d="M166.169 158.764H149.883C149.732 158.764 149.614 158.646 149.614 158.495C149.614 158.344 149.732 158.226 149.883 158.226H166.169C166.32 158.226 166.438 158.344 166.438 158.495C166.438 158.64 166.32 158.764 166.169 158.764Z" fill="white"/>
<path d="M205.966 102.159L205.982 102.099L213.778 74.9813L213.746 74.9543C214.096 74.2706 215.005 72.7954 216.863 71.498C220.077 69.2583 220.459 65.5435 220.459 65.5435C222.177 63.8853 224.109 62.4639 225.859 60.8434C226.042 60.6765 226.231 60.4881 226.284 60.2458C226.344 59.9766 226.22 59.6967 226.064 59.4652C225.159 58.1246 223.496 57.9308 222.117 58.5499C221.31 58.9106 220.583 59.4275 219.905 59.9928C219.582 60.262 218.483 60.9996 218.15 61.4949L224.352 48.2561C224.901 47.0824 224.54 45.7365 223.55 45.2735C223.054 45.042 222.489 45.0689 221.983 45.3058C221.66 45.4565 221.369 45.6934 221.121 45.9949C221.143 45.898 221.154 45.8388 221.154 45.8388C213.891 39.7336 204.932 60.515 204.932 60.515L202.391 66.5179L180.824 106.509C177.776 112.313 180.124 119.484 186.019 122.359C186.105 122.402 186.191 122.434 186.277 122.477C188.006 123.473 190.014 124.049 192.151 124.049H234.597L243.744 102.309L205.966 102.159Z" fill="#FEC29E"/>
<path opacity="0.17" d="M198.698 124.039C197.314 123.995 198.154 124.022 198.698 124.039V124.039Z" fill="#FF887C"/>
<path opacity="0.17" d="M198.703 124.038C198.897 124.044 199.053 124.049 199.053 124.049C198.918 124.044 198.811 124.038 198.703 124.038Z" fill="#FF887C"/>
<path opacity="0.17" d="M205.982 102.094L204.749 106.39C204.426 107.58 204.06 108.862 203.662 110.17L202.17 115.36C201.966 116.027 201.702 116.657 201.395 117.255C200.108 121.099 199.053 124.044 199.053 124.044L214.316 102.186C210.521 102.191 209.649 102.1 205.982 102.094Z" fill="#FF887C"/>
<path d="M212.131 62.8516C212.077 62.8516 212.018 62.8354 211.969 62.7977C211.851 62.7116 211.824 62.5393 211.91 62.4209C214.618 58.7491 218.263 60.7303 218.295 60.7519C218.424 60.8272 218.473 60.9888 218.397 61.118C218.327 61.2472 218.16 61.2956 218.031 61.2203C217.897 61.1449 214.763 59.4544 212.341 62.7385C212.292 62.8139 212.211 62.8516 212.131 62.8516Z" fill="#FB8E77"/>
<path d="M221.278 45.9465C220.158 47.357 219.119 48.8376 218.193 50.3827C217.735 51.1526 217.315 51.9494 216.97 52.7677C216.626 53.5807 216.351 54.4529 216.394 55.2712V55.2873C216.4 55.4381 216.287 55.5619 216.141 55.5727C215.996 55.5835 215.867 55.465 215.856 55.3197V55.3143C215.829 54.3129 216.158 53.4192 216.524 52.5793C216.9 51.7394 217.342 50.9372 217.827 50.162C218.796 48.6168 219.867 47.1471 221.03 45.7473C221.084 45.6773 221.186 45.6719 221.256 45.7257C221.321 45.7742 221.331 45.8711 221.278 45.9465Z" fill="#FB8E77"/>
<path d="M219.404 45.1766C218.693 45.6665 218.058 46.3126 217.487 46.9855C216.917 47.6639 216.416 48.4015 215.964 49.166C215.522 49.9358 215.129 50.738 214.801 51.5618C214.623 51.9709 214.494 52.3962 214.338 52.8108L213.95 54.0868L213.945 54.1029C213.902 54.2429 213.751 54.3236 213.611 54.2806C213.471 54.2375 213.39 54.0868 213.433 53.9468V53.9414L213.853 52.6439C214.02 52.2186 214.166 51.7879 214.354 51.3733C214.709 50.5335 215.124 49.7205 215.592 48.9398C216.072 48.1646 216.599 47.4162 217.197 46.7271C217.805 46.0434 218.451 45.4027 219.232 44.8805C219.307 44.832 219.415 44.8482 219.463 44.9289C219.512 45.0043 219.496 45.1066 219.42 45.1604L219.404 45.1766Z" fill="#FB8E77"/>
<path d="M216.47 45.3811C215.441 46.4579 214.478 47.6262 213.648 48.8645C213.239 49.489 212.846 50.1243 212.539 50.7918C212.227 51.4594 211.974 52.154 211.861 52.8592V52.8646C211.84 53.01 211.7 53.1123 211.554 53.0907C211.409 53.0692 211.307 52.9292 211.328 52.7839V52.7785C211.473 51.9978 211.764 51.271 212.109 50.5819C212.448 49.8928 212.868 49.2521 213.304 48.6222C214.181 47.3785 215.177 46.2318 216.254 45.155C216.313 45.0958 216.416 45.0958 216.475 45.155C216.529 45.2196 216.529 45.3165 216.47 45.3811Z" fill="#FB8E77"/>
<path d="M303.93 141.638L293.518 113.255C292.279 107.026 286.352 102.304 279.224 102.304L250.14 102.073L217.375 102.196V124.038H227.544L222.295 181.015L294.449 181.424L294.045 142.844L303.93 141.638Z" fill="#4E69FF"/>
<path opacity="0.05" d="M250.086 102.32L250.146 102.078L217.38 102.202V124.044H227.55L227.604 123.468C227.598 111.941 237.618 102.573 250.086 102.32Z" fill="#1B1B25"/>
<path opacity="0.18" d="M208.674 70.7119C208.674 70.7119 210.516 86.3303 210.623 85.9588C210.731 85.582 213.778 74.9813 213.778 74.9813L208.674 70.7119Z" fill="#FF887C"/>
<path d="M251.626 149.795L248.875 135.915L246.748 125.207C246.501 123.947 245.262 123.123 244.003 123.371L233.364 125.481C232.104 125.729 231.281 126.967 231.528 128.227L233.666 139.005L235.362 147.555L236.406 152.815C236.654 154.075 237.892 154.898 239.152 154.651L245.435 153.402L249.79 152.54C251.05 152.287 251.874 151.054 251.626 149.795Z" fill="#1B1B25"/>
<path d="M308.242 162.586L303.445 141.703L281.641 144.373L282.836 149.687L282.723 149.66L259.018 143.792L258.996 143.819C258.345 143.49 257.112 142.709 256.03 141.094C254.043 138.123 250.705 138.042 250.705 138.042C250.065 137.369 249.462 136.647 248.869 135.921L249.424 138.72L249.284 138.795C247.776 139.592 246.075 139.948 244.374 139.813C241.23 139.565 236.088 139.167 233.951 139C233.299 138.952 232.675 139.296 232.39 139.888C229.337 146.3 242.436 152.169 245.429 153.407C245.467 153.423 245.499 153.434 245.537 153.45C245.58 153.466 245.623 153.482 245.661 153.499C245.704 153.515 245.736 153.531 245.774 153.547C245.806 153.563 245.844 153.574 245.871 153.585C245.908 153.601 245.935 153.612 245.962 153.622C245.973 153.628 245.989 153.633 245.994 153.639C246.021 153.649 246.037 153.655 246.037 153.655L251.163 155.577L291.746 175.556C292.123 175.739 292.505 175.895 292.887 176.03C294.858 176.929 297.119 177.225 299.391 176.703C305.738 175.238 309.695 168.923 308.242 162.586Z" fill="#FEC29E"/>
<path opacity="0.17" d="M306.691 155.851L281.635 144.368C282.47 148.013 281.985 146.403 282.723 149.655L284.429 150.075C291.644 150.564 306.691 155.851 306.691 155.851Z" fill="#FF887C"/>
<path opacity="0.35" d="M279.611 144.637C279.487 144.637 279.374 144.551 279.347 144.422L276.214 129.255C276.181 129.11 276.278 128.965 276.424 128.938C276.564 128.905 276.714 129.002 276.741 129.148L279.821 144.066L290.368 142.726C290.513 142.704 290.648 142.812 290.669 142.957C290.691 143.103 290.583 143.237 290.438 143.259L279.649 144.632C279.632 144.637 279.622 144.637 279.611 144.637Z" fill="#1B1B25"/>
<path opacity="0.17" d="M306.864 156.713C306.885 156.815 306.901 156.896 306.907 156.928C306.901 156.907 306.891 156.842 306.864 156.713Z" fill="#FF887C"/>
<path opacity="0.17" d="M306.691 155.851C306.691 155.851 306.751 156.142 306.804 156.427C306.778 156.277 306.74 156.094 306.691 155.851Z" fill="#FF887C"/>
<path opacity="0.17" d="M306.805 156.427C306.826 156.546 306.848 156.643 306.864 156.713C306.848 156.632 306.826 156.53 306.805 156.427Z" fill="#FF887C"/>
<path d="M277.14 46.081C276.478 41.5102 272.305 38.2584 267.68 38.7806C266.453 38.9206 265.317 39.3136 264.316 39.9004C262.83 37.467 260.025 35.9757 257.004 36.3148C255.276 36.5087 253.758 37.2785 252.6 38.3984C250.931 37.5639 249.015 37.1762 247.023 37.4024C241.548 38.0215 237.612 42.9638 238.231 48.4338C238.522 50.9964 239.76 53.2146 241.553 54.792L239.523 65.6242C238.942 68.7361 240.988 71.7241 244.099 72.3055L268.122 76.801C271.234 77.3824 274.222 75.3366 274.803 72.2248L278.739 51.201C279.11 49.2682 278.448 47.3731 277.14 46.081Z" fill="#1B1B25"/>
<path d="M242.129 52.0032C242.038 52.0032 241.951 51.9601 241.903 51.8794C237.612 45.0904 243.523 40.7349 243.583 40.6918C243.701 40.6057 243.873 40.6326 243.96 40.7511C244.046 40.8695 244.019 41.0418 243.9 41.1279C243.674 41.2948 238.344 45.2358 242.361 51.594C242.441 51.7179 242.404 51.8848 242.274 51.9655C242.226 51.9924 242.178 52.0032 242.129 52.0032Z" fill="#FCF0E3"/>
<path d="M273.258 67.3148L272.731 67.2179L267.428 55.8204C266.125 55.6319 264.897 55.1528 263.842 54.4313C262.824 55.535 261.425 56.2941 259.82 56.4718C257.887 56.6925 256.057 56.0303 254.727 54.8136C253.247 56.1111 251.378 56.994 249.273 57.2309C246.867 57.5055 244.563 56.8917 242.689 55.6642L238.996 75.3958C238.484 78.12 239.044 80.7958 240.363 83.0031C241.677 86.2496 244.498 88.8015 248.132 89.636V102.67C248.132 107.198 251.836 110.902 256.364 110.902H258.959C263.487 110.902 267.191 107.198 267.191 102.67V87.8755C268.526 86.4111 269.49 84.5752 269.883 82.4809L270.556 78.8792L271.083 78.9761C274.2 79.5575 277.231 77.4847 277.813 74.3675L277.872 74.0499C278.448 70.9273 276.375 67.8962 273.258 67.3148Z" fill="#FEC29E"/>
<path opacity="0.32" d="M269.328 78.4161L268.849 80.9842C267.74 86.9118 262.033 90.8204 256.1 89.7113L247.718 88.1393C244.514 87.5417 241.908 85.5927 240.358 82.9977C241.725 86.3788 244.724 89.0168 248.574 89.7383L248.907 89.8029C250.237 92.5647 253.064 94.4868 256.315 94.4868H258.943C262.824 94.4868 266.098 91.7572 266.948 88.1231C268.407 86.6157 269.452 84.6883 269.866 82.4755L270.539 78.8738L269.328 78.4161Z" fill="#FF887C"/>
<path d="M273.716 75.0458C273.656 75.0458 273.597 75.0297 273.549 74.9866L271.454 73.3607C271.39 73.3123 271.352 73.2369 271.352 73.1615C271.347 73.0807 271.379 73.0054 271.438 72.9515L274.023 70.5127C274.13 70.4104 274.302 70.4158 274.405 70.5234C274.507 70.6311 274.502 70.8034 274.394 70.9057L272.041 73.1292L273.888 74.5613C274.006 74.6528 274.028 74.8197 273.936 74.9382C273.877 75.0081 273.796 75.0458 273.716 75.0458Z" fill="#FB8E77"/>
<path d="M260.396 65.0266C259.992 65.0158 259.578 64.7682 259.158 64.5582C258.743 64.3321 258.323 64.1221 257.947 63.9445C257.575 63.7722 257.139 63.5837 256.697 63.4115C256.267 63.2284 255.809 63.0669 255.545 62.7654C255.287 62.4801 255.341 62.0332 255.938 61.7317C256.509 61.4356 257.677 61.3602 258.916 61.9363C260.148 62.5124 260.832 63.4492 260.956 64.0737C261.107 64.7197 260.784 65.0428 260.396 65.0266Z" fill="#1B1B25"/>
<path d="M243.265 63.5515C243.615 63.7453 244.094 63.7722 244.562 63.8207C245.031 63.8637 245.499 63.9122 245.908 63.9714C246.317 64.0306 246.786 64.106 247.243 64.1975C247.706 64.2783 248.175 64.386 248.557 64.2944C248.923 64.2137 249.117 63.853 248.767 63.3361C248.439 62.83 247.486 62.2001 246.134 62.0063C244.783 61.8179 243.717 62.1678 243.281 62.5662C242.823 62.97 242.931 63.3684 243.265 63.5515Z" fill="#1B1B25"/>
<path d="M256.439 69.6298L256.477 69.6351C256.837 69.7051 257.187 69.4629 257.252 69.1021L257.414 68.2515C257.484 67.8908 257.241 67.5408 256.881 67.4762L256.843 67.4709C256.482 67.4009 256.132 67.6431 256.068 68.0038L255.906 68.8545C255.836 69.2098 256.078 69.5598 256.439 69.6298Z" fill="#1B1B25"/>
<path d="M244.832 67.7454L244.869 67.7508C245.23 67.8208 245.58 67.5785 245.645 67.2178L245.806 66.3672C245.876 66.0065 245.634 65.6565 245.273 65.5919L245.235 65.5865C244.875 65.5165 244.525 65.7588 244.46 66.1195L244.299 66.9702C244.234 67.3255 244.471 67.6754 244.832 67.7454Z" fill="#1B1B25"/>
<path opacity="0.17" d="M256.918 72.7146L259.303 72.9838C259.755 73.0323 260.165 72.7093 260.213 72.257L260.218 72.214C260.267 71.7617 259.944 71.3525 259.492 71.3041L257.107 71.0349C256.654 70.9864 256.245 71.3095 256.197 71.7617L256.191 71.8102C256.137 72.2516 256.466 72.6662 256.918 72.7146Z" fill="#FF887C"/>
<path opacity="0.17" d="M241.203 70.2381L243.588 70.5073C244.04 70.5558 244.449 70.2328 244.498 69.7805L244.503 69.7374C244.552 69.2852 244.228 68.876 243.776 68.8276L241.391 68.5584C240.939 68.5099 240.53 68.833 240.481 69.2852L240.476 69.3283C240.428 69.7805 240.751 70.1897 241.203 70.2381Z" fill="#FF887C"/>
<path d="M248.148 82.427C248.067 82.427 247.981 82.3893 247.932 82.3139C247.846 82.1955 247.873 82.0232 247.992 81.9371C249.122 81.1134 250.382 81.5764 250.893 81.9317C251.017 82.0178 251.044 82.1847 250.958 82.3032C250.872 82.4216 250.705 82.4539 250.581 82.3678C250.533 82.3355 249.397 81.5656 248.304 82.3624C248.255 82.4109 248.202 82.427 248.148 82.427Z" fill="#FB8E77"/>
<path d="M249.968 74.7767L256.261 73.8776L255.572 76.0634C255.131 77.4632 253.833 78.4161 252.364 78.4161C251.222 78.4161 250.264 77.5547 250.14 76.4187L249.968 74.7767Z" fill="white"/>
<path d="M251.594 72.5424C251.572 72.5424 251.551 72.537 251.524 72.5316L249.569 72.0255C248.74 71.8102 248.073 71.2341 247.739 70.4481C247.405 69.6621 247.448 68.7791 247.863 68.0361L250.834 62.6847C250.91 62.5554 251.071 62.507 251.201 62.5824C251.33 62.6524 251.378 62.8192 251.303 62.9485L248.331 68.3C247.997 68.9029 247.96 69.6082 248.234 70.2381C248.503 70.868 249.042 71.331 249.709 71.5033L251.664 72.0094C251.809 72.0471 251.895 72.1924 251.857 72.3378C251.825 72.4616 251.712 72.5424 251.594 72.5424Z" fill="#FB8E77"/>
<path d="M160.166 111.252L138.599 71.2611L136.058 65.2582C136.058 65.2582 127.099 44.4713 119.836 50.5819C119.836 50.5819 119.847 50.6412 119.869 50.7381C119.621 50.4366 119.33 50.1997 119.007 50.0489C118.501 49.8121 117.936 49.7851 117.44 50.0166C116.45 50.4796 116.089 51.8202 116.638 52.9993L122.84 66.238C122.507 65.7481 121.408 65.0051 121.085 64.7359C120.407 64.1706 119.686 63.6538 118.873 63.2931C117.489 62.6739 115.831 62.8678 114.926 64.2083C114.77 64.4398 114.646 64.7144 114.706 64.989C114.759 65.2312 114.948 65.4197 115.131 65.5866C116.881 67.2071 118.819 68.6284 120.531 70.2866C120.531 70.2866 120.913 74.0014 124.127 76.2411C125.985 77.5386 126.894 79.0084 127.244 79.6975L127.212 79.7244L135.024 106.902L123.616 107.053V128.792H148.85C150.992 128.792 153 128.216 154.729 127.215C154.809 127.177 154.896 127.14 154.976 127.102C160.866 124.227 163.219 117.05 160.166 111.252Z" fill="#FEC29E"/>
<path opacity="0.17" d="M141.937 128.787C141.937 128.787 144.44 128.712 141.937 128.787C141.937 128.787 136.074 113.012 135.067 106.832C131.18 106.832 130.593 107.004 126.706 107.004L141.937 128.787Z" fill="#FF887C"/>
<path d="M128.86 67.5893C128.779 67.5893 128.698 67.5516 128.644 67.4817C126.222 64.1975 123.088 65.8881 122.954 65.9634C122.824 66.0334 122.663 65.9903 122.588 65.8611C122.518 65.7319 122.561 65.5704 122.69 65.495C122.728 65.4735 126.367 63.4923 129.075 67.164C129.161 67.2825 129.14 67.4547 129.016 67.5409C128.967 67.5732 128.914 67.5893 128.86 67.5893Z" fill="#FB8E77"/>
<path d="M119.95 50.4688C120.601 51.1203 121.199 51.8148 121.764 52.5362C122.324 53.2576 122.851 54.0114 123.325 54.8028C123.788 55.5996 124.203 56.4233 124.531 57.2901C124.843 58.1623 125.064 59.0775 125.134 60.0197C125.145 60.1704 125.037 60.2996 124.887 60.3104C124.736 60.3212 124.607 60.2135 124.596 60.0628C124.596 60.0628 124.596 60.0628 124.596 60.0574V60.0466C124.542 59.169 124.354 58.3023 124.074 57.457C123.772 56.6171 123.39 55.8042 122.954 55.0181C122.507 54.2375 122.006 53.4891 121.468 52.7623C120.924 52.0409 120.348 51.341 119.729 50.6949L119.723 50.6896C119.664 50.625 119.664 50.5227 119.729 50.4634C119.783 50.4042 119.885 50.4096 119.95 50.4688Z" fill="#FB8E77"/>
<path d="M121.769 49.4352C122.646 49.8874 123.293 50.5658 123.89 51.2764C124.482 51.9925 124.994 52.7731 125.435 53.5807C125.893 54.3882 126.27 55.2281 126.63 56.0788L127.12 57.3709L127.556 58.6845C127.605 58.8245 127.524 58.9752 127.384 59.0237C127.244 59.0722 127.088 58.9914 127.045 58.8514C127.045 58.8514 127.045 58.8514 127.045 58.846L127.04 58.8353L126.636 57.5378L126.178 56.2564C125.839 55.4166 125.489 54.5821 125.053 53.7853C124.638 52.9831 124.149 52.2186 123.589 51.5133C123.034 50.8188 122.383 50.1404 121.634 49.7366L121.607 49.7205C121.527 49.6774 121.494 49.5751 121.543 49.4944C121.586 49.4244 121.688 49.3921 121.769 49.4352Z" fill="#FB8E77"/>
<path d="M124.725 49.8874C125.328 50.3773 125.866 50.9157 126.367 51.4918C126.873 52.0678 127.336 52.6762 127.751 53.3169C128.171 53.9575 128.547 54.6251 128.86 55.3304C129.188 56.0249 129.43 56.7571 129.657 57.4947C129.7 57.6347 129.619 57.7854 129.479 57.8285C129.339 57.8716 129.188 57.7908 129.145 57.6508V57.6454L129.14 57.6293C128.946 56.9186 128.73 56.2026 128.424 55.5242C128.138 54.8405 127.788 54.1783 127.395 53.5484C127.008 52.9131 126.572 52.3047 126.092 51.734C125.619 51.1633 125.096 50.6142 124.537 50.1404L124.531 50.135C124.467 50.0812 124.456 49.9789 124.515 49.9143C124.563 49.8443 124.66 49.8335 124.725 49.8874Z" fill="#FB8E77"/>
<path opacity="0.18" d="M126.238 78.1846L134.572 77.1563L129.42 87.4071C129.42 87.4071 127.885 79.7836 126.238 78.1846Z" fill="#FF887C"/>
<path d="M92.7451 107.053V107.063C92.6159 107.058 92.4867 107.053 92.3575 107.053H66.0253C60.3077 107.053 55.43 110.643 53.5188 115.688L53.4811 115.796C53.4757 115.812 53.4703 115.828 53.4595 115.85L42.2612 146.381L52.6573 147.652V181.559H109.246L113.478 128.787H123.32V106.945L92.7451 107.053Z" fill="white"/>
<path opacity="0.05" d="M123.61 106.945L93.5474 107.069V107.074C104.821 107.542 113.812 116.824 113.812 128.211L113.764 128.787H123.605V106.945H123.61Z" fill="#1B1B25"/>
<path d="M113.112 130.224L102.474 128.114C101.214 127.866 99.9809 128.69 99.7278 129.95L97.6012 140.658L94.8501 154.538C94.6025 155.797 95.4262 157.03 96.686 157.283L101.041 158.145L107.324 159.394C108.584 159.641 109.817 158.818 110.07 157.558L111.115 152.298L112.81 143.748L114.948 132.97C115.195 131.71 114.372 130.472 113.112 130.224Z" fill="#1B1B25"/>
<path d="M114.226 144.513C114.092 144.233 113.882 144.012 113.629 143.862C113.586 143.797 113.548 143.727 113.499 143.662C113.499 143.662 113.402 143.673 113.246 143.695C113.063 143.641 112.864 143.614 112.67 143.63C110.533 143.797 105.391 144.195 102.247 144.443C100.546 144.578 98.8447 144.222 97.3372 143.425L97.0842 143.291L97.6064 140.658C97.0411 141.347 96.4705 142.031 95.8675 142.672C95.5606 142.688 93.8055 142.844 92.1634 144.066C91.555 144.497 90.9574 145.068 90.446 145.827C89.8053 146.785 89.1108 147.447 88.5186 147.894C88.1686 148.147 87.8618 148.325 87.6303 148.438L87.6087 148.411L63.9039 154.279L63.7962 154.306L64.9968 148.971L43.1816 146.327L38.3847 167.211C36.931 173.548 40.8881 179.863 47.2249 181.317C49.4968 181.839 51.7634 181.543 53.7285 180.644C54.1107 180.509 54.493 180.348 54.8699 180.17L94.9953 160.417L100.433 158.376C100.433 158.376 100.654 158.29 101.036 158.134L100.955 158.118C103.448 157.116 117.36 151.103 114.226 144.513Z" fill="#FEC29E"/>
<path opacity="0.17" d="M39.6173 161.44C39.5958 161.553 39.5796 161.623 39.5742 161.655C39.585 161.612 39.5958 161.537 39.6173 161.44Z" fill="#FF887C"/>
<path opacity="0.17" d="M63.7528 154.392C64.2428 152.131 64.1028 152.325 64.8458 149.084L39.7842 160.594C39.7842 160.594 42.2661 159.846 45.6956 158.936C46.0132 158.818 46.3363 158.71 46.6701 158.624L63.7528 154.392Z" fill="#FF887C"/>
<path opacity="0.17" d="M39.6764 161.127C39.6549 161.235 39.6333 161.343 39.6172 161.434C39.6333 161.359 39.6549 161.257 39.6764 161.127Z" fill="#FF887C"/>
<path opacity="0.17" d="M39.5744 161.655C39.569 161.687 39.569 161.687 39.5744 161.655V161.655Z" fill="#FF887C"/>
<path opacity="0.17" d="M39.7844 160.594C39.7414 160.815 39.7091 160.982 39.6768 161.133C39.7306 160.858 39.7844 160.594 39.7844 160.594Z" fill="#FF887C"/>
<path opacity="0.35" d="M66.865 149.353C66.8543 149.353 66.8435 149.353 66.8327 149.353L62.0735 148.766C61.9281 148.75 61.8204 148.615 61.8366 148.465C61.8527 148.319 61.9927 148.212 62.1381 148.233L66.6389 148.788L69.1424 132.803C69.1639 132.658 69.3039 132.556 69.4493 132.577C69.5946 132.599 69.6969 132.739 69.6754 132.884L67.1288 149.127C67.1127 149.256 66.9996 149.353 66.865 149.353Z" fill="#1B1B25"/>
<path opacity="0.08" d="M72.4263 152.158L83.1723 151.889C85.1751 152.153 88.3677 150.344 87.9962 148.357L72.4263 152.158Z" fill="#FF887C"/>
<path d="M106.318 100.172L102.662 75.3043C102.264 72.5801 101.472 70.012 100.358 67.6378L102.339 67.3201C102.339 67.3201 100.945 47.1363 78.3112 51.9548C76.0823 51.7233 73.7888 51.761 71.4683 52.1055C60.4692 53.7207 52.8673 63.9445 54.4825 74.9436L56.6145 89.4368C58.2296 100.436 68.4534 108.038 79.4525 106.423L104.39 102.756C105.639 102.579 106.501 101.421 106.318 100.172Z" fill="#1B1B25"/>
<path d="M91.3023 66.5287C91.1677 66.5287 91.0547 66.4318 91.0331 66.2972C91.0116 66.1519 91.1139 66.0119 91.2646 65.9957L98.5435 64.9997C98.6028 64.9943 98.6566 64.962 98.6889 64.9136C98.7104 64.8867 98.7374 64.8328 98.7266 64.7574C97.5475 58.1946 91.5069 55.1689 91.4423 55.1366C91.3077 55.072 91.2539 54.9105 91.3185 54.7759C91.3831 54.6413 91.5446 54.5875 91.6792 54.6521C91.7438 54.6844 98.0267 57.8231 99.2542 64.6605C99.2919 64.8597 99.2434 65.0589 99.125 65.2258C99.0065 65.3927 98.8181 65.5058 98.6189 65.5327L91.34 66.5287C91.3292 66.5287 91.3131 66.5287 91.3023 66.5287Z" fill="#FCF0E3"/>
<path d="M98.3172 67.9715L78.3918 71.1749L73.5571 64.0198C74.5047 71.9986 68.6202 77.1563 68.6202 77.1563C68.6202 77.1563 68.5609 77.0755 68.4533 76.9248L68.2864 76.9571C65.1692 77.5385 63.0964 80.5696 63.6778 83.6868C64.2593 86.8041 67.2904 88.8768 70.4076 88.2954L70.7898 88.2254C71.4736 91.2134 73.008 93.8084 75.1023 95.7735V108.544C75.1023 113.072 78.8063 116.776 83.3341 116.776C87.8619 116.776 91.5659 113.072 91.5659 108.544V98.46C94.8446 96.9525 97.4127 94.3145 98.8771 91.1273C98.8825 91.1219 98.8825 91.1165 98.8879 91.1111C100.67 88.1285 101.413 84.5106 100.724 80.8227L98.3172 67.9715Z" fill="#FEC29E"/>
<path opacity="0.32" d="M88.9169 98.0669C81.5357 99.4505 74.4075 95.0843 72.1463 88.123C72.071 87.8969 70.7735 88.193 70.8058 88.333C71.5057 91.2941 73.0562 93.8568 75.1451 95.8057C75.5327 99.9782 79.0645 103.278 83.3392 103.278C86.4995 103.278 89.2507 101.469 90.6289 98.8422C94.3599 97.4262 97.2887 94.5997 98.8877 91.1057C96.788 94.6213 93.2508 97.254 88.9169 98.0669Z" fill="#FF887C"/>
<path d="M67.6834 84.5052C67.6027 84.5052 67.5219 84.4675 67.4681 84.4029C67.3766 84.2845 67.3981 84.1176 67.5165 84.0261L69.3094 82.637L67.0266 80.4835C66.9189 80.3812 66.9136 80.2089 67.0159 80.1013C67.1181 79.9936 67.2904 79.9882 67.3981 80.0905L69.9123 82.4648C69.9716 82.5186 69.9985 82.594 69.9985 82.6747C69.9931 82.7555 69.9554 82.8255 69.8962 82.8739L67.8557 84.4568C67.8019 84.4891 67.7427 84.5052 67.6834 84.5052Z" fill="#FB8E77"/>
<path d="M82.0205 74.6906C82.2627 74.6852 82.5104 74.5398 82.7526 74.4106C83.0003 74.276 83.248 74.1522 83.4687 74.0445C83.6894 73.9422 83.9478 73.8291 84.2117 73.7268C84.4701 73.6192 84.7393 73.5223 84.8954 73.3446C85.0461 73.1777 85.0192 72.9085 84.6585 72.7309C84.3193 72.5532 83.6248 72.5101 82.8926 72.8493C82.1604 73.1939 81.7566 73.7484 81.6813 74.1199C81.6005 74.5129 81.7943 74.7013 82.0205 74.6906Z" fill="#1B1B25"/>
<path d="M96.3038 72.2086C96.0723 72.2678 95.7923 72.1978 95.5232 72.144C95.2486 72.0848 94.974 72.0309 94.7317 71.9933C94.4895 71.9556 94.2095 71.9233 93.9349 71.8964C93.6604 71.8641 93.3696 71.8479 93.1704 71.7187C92.9766 71.6002 92.9335 71.3364 93.2243 71.0619C93.5042 70.7981 94.1557 70.5666 94.9579 70.6904C95.7547 70.8196 96.2984 71.2395 96.4707 71.5733C96.6591 71.9179 96.5299 72.1548 96.3038 72.2086Z" fill="#1B1B25"/>
<path d="M88.233 85.8297C86.0256 85.8297 84.5505 84.0961 84.5343 84.0745C84.4374 83.9615 84.4536 83.7892 84.5666 83.6977C84.6797 83.6008 84.852 83.6169 84.9435 83.73C85.0296 83.8323 87.0701 86.2173 89.9235 84.8982C90.0581 84.8336 90.2196 84.8929 90.2788 85.0275C90.3435 85.1621 90.2842 85.3236 90.1496 85.3828C89.4713 85.7058 88.8252 85.8297 88.233 85.8297Z" fill="#FB8E77"/>
<path d="M89.8432 82.0717C89.7194 82.0717 89.6063 81.9802 89.5794 81.8564C89.5525 81.711 89.644 81.571 89.7894 81.5387L91.6845 81.1673C92.8635 80.9358 93.628 79.789 93.3965 78.6153C93.3104 78.19 92.9012 77.9155 92.4759 77.9962C91.4799 78.19 90.5108 77.544 90.317 76.548L89.8594 74.2276C89.8324 74.0822 89.924 73.9422 90.0693 73.9099C90.2147 73.883 90.3547 73.9745 90.387 74.1199L90.8446 76.4403C90.9846 77.1456 91.6683 77.6032 92.3736 77.4632C92.7235 77.3932 93.0735 77.4686 93.3696 77.6624C93.6657 77.8616 93.8649 78.1577 93.9295 78.5077C94.2202 79.9774 93.2619 81.4041 91.7921 81.6949L89.897 82.0664C89.8755 82.0717 89.8594 82.0717 89.8432 82.0717Z" fill="#FB8E77"/>
<path d="M84.4805 79.2345C84.1198 79.3045 83.7699 79.0622 83.7053 78.7015L83.5545 77.9047C83.4845 77.544 83.7268 77.194 84.0875 77.1294C84.4482 77.0594 84.7982 77.3017 84.8628 77.6624L85.0135 78.4592C85.0782 78.8199 84.8413 79.1699 84.4805 79.2345Z" fill="#1B1B25"/>
<path d="M95.7706 77.3986C95.4099 77.4686 95.0599 77.2263 94.9953 76.8656L94.8446 76.0688C94.7746 75.7081 95.0169 75.3582 95.3776 75.2935C95.7383 75.2236 96.0882 75.4658 96.1528 75.8265L96.3036 76.6233C96.3682 76.9841 96.1313 77.334 95.7706 77.3986Z" fill="#1B1B25"/>
<path opacity="0.17" d="M84.0069 82.2332L81.735 82.4863C81.2827 82.5347 80.8736 82.2117 80.8251 81.7594C80.7767 81.3072 81.0997 80.898 81.5519 80.8496L83.8239 80.5965C84.2761 80.5481 84.6853 80.8711 84.7338 81.3234C84.7876 81.7756 84.4592 82.1848 84.0069 82.2332Z" fill="#FF887C"/>
<path opacity="0.17" d="M99.297 79.8267L97.025 80.0797C96.5728 80.1282 96.1636 79.8051 96.1152 79.3529C96.0667 78.9006 96.3897 78.4915 96.842 78.443L99.1139 78.19C99.5662 78.1415 99.9753 78.4646 100.024 78.9168C100.072 79.369 99.7438 79.7782 99.297 79.8267Z" fill="#FF887C"/>
<path d="M92.562 91.6925C92.5081 91.6925 92.4489 91.6764 92.4058 91.6387C91.3452 90.8634 90.2469 91.6118 90.1985 91.6441C90.0747 91.7302 89.9078 91.6979 89.8216 91.5795C89.7355 91.4556 89.7678 91.2887 89.8862 91.2026C90.3869 90.8527 91.6198 90.4004 92.7181 91.208C92.8365 91.2941 92.8635 91.4664 92.7773 91.5848C92.7289 91.6548 92.6427 91.6925 92.562 91.6925Z" fill="#FB8E77"/>
</g>
<defs>
<clipPath id="clip0_76_955">
<rect width="350.453" height="180.992" fill="white" transform="translate(0.773438 0.593384)"/>
</clipPath>
</defs>
</svg>
