<svg width="24" height="25" viewBox="0 0 24 25" fill="none" xmlns="http://www.w3.org/2000/svg">
<path d="M19.3332 15.1959C18.5771 15.1965 17.8325 15.3811 17.1637 15.7337C16.4949 16.0863 15.9219 16.5964 15.4942 17.2199L8.98518 14.2809C9.44749 13.1645 9.44929 11.9106 8.99018 10.7929L15.4902 7.83888C16.124 8.75564 17.0655 9.41484 18.1438 9.69693C19.222 9.97901 20.3657 9.86529 21.3673 9.37638C22.3689 8.88748 23.1621 8.05578 23.603 7.03215C24.0439 6.00852 24.1034 4.86075 23.7705 3.79705C23.4377 2.73336 22.7347 1.82418 21.7889 1.23444C20.8432 0.644695 19.7174 0.413453 18.6157 0.582657C17.5141 0.75186 16.5096 1.3103 15.7844 2.15668C15.0592 3.00307 14.6614 4.08133 14.6632 5.19588C14.6674 5.45968 14.6942 5.72264 14.7432 5.98188L7.83318 9.12188C7.16952 8.5001 6.33868 8.08572 5.44275 7.92964C4.54682 7.77357 3.6248 7.8826 2.78999 8.24334C1.95517 8.60408 1.2439 9.20082 0.743573 9.96024C0.243244 10.7197 -0.0243578 11.6087 -0.0263559 12.5181C-0.0283541 13.4276 0.235338 14.3178 0.732325 15.0794C1.22931 15.841 1.93795 16.4409 2.77117 16.8053C3.6044 17.1697 4.52592 17.2827 5.42253 17.1306C6.31915 16.9785 7.15179 16.5677 7.81818 15.9489L14.7462 19.0769C14.6981 19.3359 14.6716 19.5985 14.6672 19.8619C14.667 20.785 14.9406 21.6875 15.4533 22.4551C15.966 23.2227 16.6949 23.8211 17.5477 24.1744C18.4006 24.5278 19.339 24.6203 20.2444 24.4403C21.1498 24.2602 21.9815 23.8157 22.6342 23.163C23.287 22.5102 23.7315 21.6785 23.9116 20.7731C24.0916 19.8677 23.9991 18.9293 23.6457 18.0764C23.2924 17.2236 22.694 16.4947 21.9264 15.982C21.1588 15.4693 20.2563 15.1957 19.3332 15.1959ZM19.3332 2.52888C19.8607 2.52868 20.3764 2.68493 20.8152 2.97787C21.2539 3.2708 21.5959 3.68726 21.7979 4.17457C21.9999 4.66188 22.0528 5.19816 21.9501 5.71557C21.8473 6.23299 21.5933 6.70829 21.2204 7.08138C20.8474 7.45447 20.3722 7.70857 19.8549 7.81156C19.3375 7.91455 18.8012 7.86179 18.3138 7.65996C17.8264 7.45813 17.4098 7.1163 17.1167 6.67769C16.8236 6.23908 16.6672 5.72341 16.6672 5.19588C16.6677 4.48888 16.9487 3.81098 17.4486 3.31097C17.9484 2.81095 18.6262 2.52968 19.3332 2.52888ZM4.66718 15.1959C4.13965 15.1961 3.62392 15.0398 3.1852 14.7469C2.74648 14.454 2.40449 14.0375 2.20248 13.5502C2.00046 13.0629 1.94751 12.5266 2.0503 12.0092C2.15309 11.4918 2.40702 11.0165 2.77997 10.6434C3.15292 10.2703 3.62813 10.0162 4.1455 9.9132C4.66288 9.81021 5.19917 9.86297 5.68656 10.0648C6.17395 10.2666 6.59054 10.6085 6.88364 11.0471C7.17673 11.4857 7.33318 12.0014 7.33318 12.5289C7.33238 13.2358 7.05128 13.9135 6.55151 14.4135C6.05174 14.9135 5.37409 15.1948 4.66718 15.1959ZM19.3332 22.5289C18.8057 22.5289 18.2901 22.3725 17.8515 22.0794C17.4129 21.7864 17.071 21.3698 16.8692 20.8825C16.6673 20.3952 16.6145 19.8589 16.7174 19.3416C16.8203 18.8242 17.0743 18.349 17.4473 17.976C17.8203 17.603 18.2955 17.349 18.8129 17.2461C19.3302 17.1432 19.8665 17.196 20.3538 17.3979C20.8411 17.5998 21.2577 17.9416 21.5507 18.3802C21.8438 18.8188 22.0002 19.3344 22.0002 19.8619C21.9996 20.5691 21.7185 21.2471 21.2184 21.7472C20.7184 22.2472 20.0403 22.5284 19.3332 22.5289Z" fill="#1D4791"/>
</svg>
