<svg width="33" height="33" viewBox="0 0 33 33" fill="none" xmlns="http://www.w3.org/2000/svg">
<path d="M21.9186 11.9683C21.9186 11.8308 21.8061 11.7183 21.6686 11.7183L19.6061 11.7277L16.4998 15.4308L13.3967 11.7308L11.3311 11.7215C11.1936 11.7215 11.0811 11.8308 11.0811 11.9715C11.0811 12.0308 11.1029 12.0871 11.1404 12.134L15.2061 16.9777L11.1404 21.8183C11.1027 21.8641 11.0817 21.9215 11.0811 21.9808C11.0811 22.1183 11.1936 22.2308 11.3311 22.2308L13.3967 22.2215L16.4998 18.5183L19.6029 22.2183L21.6654 22.2277C21.8029 22.2277 21.9154 22.1183 21.9154 21.9777C21.9154 21.9183 21.8936 21.8621 21.8561 21.8152L17.7967 16.9746L21.8623 12.1308C21.8998 12.0871 21.9186 12.0277 21.9186 11.9683Z" fill="#FF7070"/>
<path d="M16.5 2.91209C8.76875 2.91209 2.5 9.18084 2.5 16.9121C2.5 24.6433 8.76875 30.9121 16.5 30.9121C24.2313 30.9121 30.5 24.6433 30.5 16.9121C30.5 9.18084 24.2313 2.91209 16.5 2.91209ZM16.5 28.5371C10.0813 28.5371 4.875 23.3308 4.875 16.9121C4.875 10.4933 10.0813 5.28709 16.5 5.28709C22.9188 5.28709 28.125 10.4933 28.125 16.9121C28.125 23.3308 22.9188 28.5371 16.5 28.5371Z" fill="#FF7070"/>
</svg>
