<svg width="21" height="23" viewBox="0 0 21 23" fill="none" xmlns="http://www.w3.org/2000/svg">
<path d="M16.7635 14.496C16.1979 14.4989 15.6401 14.6287 15.1314 14.8758C14.6226 15.123 14.1759 15.4813 13.824 15.9242L8.30027 12.4709C8.50159 11.8211 8.50159 11.1257 8.30027 10.476L13.824 7.02267C14.3847 7.71689 15.173 8.19027 16.0492 8.35896C16.9255 8.52764 17.8331 8.38074 18.6115 7.94427C19.3898 7.50781 19.9885 6.80995 20.3015 5.97432C20.6146 5.13869 20.6218 4.21923 20.3218 3.37881C20.0219 2.5384 19.4341 1.83127 18.6627 1.3827C17.8913 0.934121 16.9861 0.773055 16.1073 0.928027C15.2285 1.083 14.4329 1.54401 13.8615 2.22939C13.2901 2.91477 12.9797 3.78028 12.9853 4.67261C12.9888 5.01052 13.0397 5.34626 13.1364 5.67006L7.61263 9.12337C7.12497 8.50946 6.45841 8.06247 5.70534 7.84435C4.95228 7.62623 4.15 7.64779 3.40973 7.90603C2.66946 8.16427 2.02787 8.6464 1.57387 9.2856C1.11988 9.9248 0.875977 10.6894 0.875977 11.4734C0.875977 12.2574 1.11988 13.022 1.57387 13.6612C2.02787 14.3004 2.66946 14.7826 3.40973 15.0408C4.15 15.2991 4.95228 15.3206 5.70534 15.1025C6.45841 14.8844 7.12497 14.4374 7.61263 13.8235L13.1364 17.2768C13.0397 17.6006 12.9888 17.9363 12.9853 18.2742C12.9853 19.0215 13.2069 19.752 13.622 20.3733C14.0372 20.9946 14.6273 21.4789 15.3176 21.7649C16.008 22.0508 16.7677 22.1257 17.5006 21.9799C18.2335 21.8341 18.9067 21.4743 19.4351 20.9459C19.9635 20.4175 20.3234 19.7442 20.4691 19.0113C20.6149 18.2784 20.5401 17.5188 20.2541 16.8284C19.9682 16.138 19.4839 15.5479 18.8626 15.1328C18.2413 14.7176 17.5108 14.496 16.7635 14.496ZM16.7635 2.40567C17.2119 2.40567 17.6502 2.53862 18.023 2.78772C18.3958 3.03681 18.6863 3.39086 18.8579 3.80509C19.0295 4.21932 19.0744 4.67512 18.9869 5.11486C18.8994 5.55461 18.6835 5.95854 18.3665 6.27558C18.0494 6.59261 17.6455 6.80852 17.2058 6.89599C16.766 6.98346 16.3102 6.93857 15.896 6.76699C15.4818 6.59541 15.1277 6.30485 14.8786 5.93205C14.6295 5.55925 14.4966 5.12097 14.4966 4.67261C14.4966 4.07138 14.7354 3.49477 15.1605 3.06964C15.5857 2.6445 16.1623 2.40567 16.7635 2.40567ZM4.67317 13.7404C4.22481 13.7404 3.78652 13.6074 3.41372 13.3583C3.04093 13.1092 2.75037 12.7552 2.57879 12.3409C2.40721 11.9267 2.36231 11.4709 2.44978 11.0312C2.53726 10.5914 2.75316 10.1875 3.0702 9.87046C3.38723 9.55342 3.79116 9.33751 4.23091 9.25004C4.67065 9.16257 5.12646 9.20747 5.54069 9.37905C5.95492 9.55063 6.30896 9.84119 6.55806 10.214C6.80715 10.5868 6.94011 11.0251 6.94011 11.4734C6.94011 12.0747 6.70127 12.6513 6.27613 13.0764C5.851 13.5015 5.2744 13.7404 4.67317 13.7404ZM16.7635 20.5412C16.3152 20.5412 15.8769 20.4082 15.5041 20.1591C15.1313 19.91 14.8407 19.556 14.6691 19.1418C14.4976 18.7275 14.4527 18.2717 14.5401 17.832C14.6276 17.3922 14.8435 16.9883 15.1605 16.6713C15.4776 16.3542 15.8815 16.1383 16.3213 16.0509C16.761 15.9634 17.2168 16.0083 17.631 16.1799C18.0453 16.3514 18.3993 16.642 18.6484 17.0148C18.8975 17.3876 19.0305 17.8259 19.0305 18.2742C19.0305 18.8755 18.7916 19.4521 18.3665 19.8772C17.9413 20.3023 17.3647 20.5412 16.7635 20.5412Z" fill="white"/>
</svg>
