<svg width="22" height="22" viewBox="0 0 22 22" fill="none" xmlns="http://www.w3.org/2000/svg">
<path d="M20.8409 13.3953H0.453201C0.324295 13.3953 0.218826 13.5008 0.218826 13.6297V15.3875C0.218826 15.5164 0.324295 15.6219 0.453201 15.6219H18.1837L13.9561 20.9832C13.836 21.1356 13.9444 21.3641 14.1407 21.3641H16.2647C16.4083 21.3641 16.543 21.2996 16.6339 21.1854L21.5792 14.9129C22.0626 14.2977 21.6261 13.3953 20.8409 13.3953ZM21.5469 6.48126H3.81648L8.04402 1.11993C8.16414 0.96759 8.05574 0.739075 7.85945 0.739075H5.73543C5.59187 0.739075 5.45711 0.803528 5.36629 0.917786L0.420974 7.19025C-0.0624241 7.80548 0.374099 8.70782 1.15633 8.70782H21.5469C21.6759 8.70782 21.7813 8.60236 21.7813 8.47345V6.71564C21.7813 6.58673 21.6759 6.48126 21.5469 6.48126Z" fill="#808080"/>
</svg>
