<svg width="24" height="25" viewBox="0 0 24 25" fill="none" xmlns="http://www.w3.org/2000/svg">
<path d="M12 17.5289C12.2833 17.5289 12.521 17.4329 12.713 17.2409C12.9043 17.0496 13 16.8122 13 16.5289V12.5289C13 12.2456 12.9043 12.0079 12.713 11.8159C12.521 11.6246 12.2833 11.5289 12 11.5289C11.7167 11.5289 11.4793 11.6246 11.288 11.8159C11.096 12.0079 11 12.2456 11 12.5289V16.5289C11 16.8122 11.096 17.0496 11.288 17.2409C11.4793 17.4329 11.7167 17.5289 12 17.5289ZM12 9.52889C12.2833 9.52889 12.521 9.43289 12.713 9.24089C12.9043 9.04955 13 8.81222 13 8.52889C13 8.24555 12.9043 8.00789 12.713 7.81589C12.521 7.62455 12.2833 7.52889 12 7.52889C11.7167 7.52889 11.4793 7.62455 11.288 7.81589C11.096 8.00789 11 8.24555 11 8.52889C11 8.81222 11.096 9.04955 11.288 9.24089C11.4793 9.43289 11.7167 9.52889 12 9.52889ZM12 22.4539H11.75C11.6667 22.4539 11.5917 22.4372 11.525 22.4039C9.34167 21.7206 7.54167 20.3662 6.125 18.3409C4.70833 16.3162 4 14.0789 4 11.6289V6.90389C4 6.48722 4.121 6.11222 4.363 5.77889C4.60433 5.44555 4.91667 5.20389 5.3 5.05389L11.3 2.80389C11.5333 2.72055 11.7667 2.67889 12 2.67889C12.2333 2.67889 12.4667 2.72055 12.7 2.80389L18.7 5.05389C19.0833 5.20389 19.396 5.44555 19.638 5.77889C19.8793 6.11222 20 6.48722 20 6.90389V11.6289C20 14.0789 19.2917 16.3162 17.875 18.3409C16.4583 20.3662 14.6583 21.7206 12.475 22.4039C12.3917 22.4372 12.2333 22.4539 12 22.4539ZM12 20.4289C13.7333 19.8789 15.1667 18.7789 16.3 17.1289C17.4333 15.4789 18 13.6456 18 11.6289V6.90389L12 4.65389L6 6.90389V11.6289C6 13.6456 6.56667 15.4789 7.7 17.1289C8.83333 18.7789 10.2667 19.8789 12 20.4289Z" fill="#1D4791"/>
</svg>
