<svg width="25" height="25" viewBox="0 0 25 25" fill="none" xmlns="http://www.w3.org/2000/svg">
<path d="M9.41318 1.42434C9.17449 1.42434 8.94557 1.51916 8.77679 1.68795C8.60801 1.85673 8.51318 2.08565 8.51318 2.32434V3.82434H7.48118C6.78749 3.8242 6.1152 4.06447 5.57872 4.50424C5.04224 4.94401 4.67475 5.55611 4.53878 6.23634L4.30118 7.42434H3.41318C3.17449 7.42434 2.94557 7.51916 2.77679 7.68794C2.608 7.85673 2.51318 8.08565 2.51318 8.32434C2.51318 8.56304 2.608 8.79195 2.77679 8.96074C2.94557 9.12952 3.17449 9.22434 3.41318 9.22434H3.94118L3.80798 9.89634C3.43432 10.0056 3.10615 10.2331 2.8727 10.5446C2.63925 10.8562 2.51311 11.235 2.51318 11.6243V16.4243C2.51318 16.9017 2.70283 17.3596 3.04039 17.6971C3.37796 18.0347 3.83579 18.2243 4.31318 18.2243H19.9132C20.3906 18.2243 20.8484 18.0347 21.186 17.6971C21.5235 17.3596 21.7132 16.9017 21.7132 16.4243V11.6243C21.7133 11.235 21.5871 10.8562 21.3537 10.5446C21.1202 10.2331 20.792 10.0056 20.4184 9.89634L20.284 9.22434H20.8132L20.9356 9.21594C21.151 9.18636 21.3485 9.07976 21.4915 8.91586C21.6344 8.75195 21.7132 8.54183 21.7132 8.32434L21.7048 8.20194C21.6752 7.98648 21.5686 7.78901 21.4047 7.64606C21.2408 7.50311 21.0307 7.42435 20.8132 7.42434H19.924L19.6876 6.23634C19.5516 5.55611 19.1841 4.94401 18.6476 4.50424C18.1112 4.06447 17.4389 3.8242 16.7452 3.82434H15.7132V2.32434C15.7132 2.08565 15.6184 1.85673 15.4496 1.68795C15.2808 1.51916 15.0519 1.42434 14.8132 1.42434H9.41318ZM7.48118 5.02434H16.7452C17.1614 5.02431 17.5647 5.1685 17.8865 5.43236C18.2084 5.69621 18.4288 6.06344 18.5104 6.47154L19.1824 9.82434H5.04518L5.71598 6.47154C5.79751 6.06364 6.0178 5.69657 6.33939 5.43274C6.66098 5.1689 7.06402 5.02459 7.47998 5.02434H7.48118ZM6.11318 14.0243C6.11318 13.7061 6.23961 13.4009 6.46466 13.1758C6.6897 12.9508 6.99492 12.8243 7.31318 12.8243C7.63144 12.8243 7.93667 12.9508 8.16171 13.1758C8.38676 13.4009 8.51318 13.7061 8.51318 14.0243C8.51318 14.3426 8.38676 14.6478 8.16171 14.8729C7.93667 15.0979 7.63144 15.2243 7.31318 15.2243C6.99492 15.2243 6.6897 15.0979 6.46466 14.8729C6.23961 14.6478 6.11318 14.3426 6.11318 14.0243ZM15.7132 14.0243C15.7132 13.7061 15.8396 13.4009 16.0647 13.1758C16.2897 12.9508 16.5949 12.8243 16.9132 12.8243C17.2314 12.8243 17.5367 12.9508 17.7617 13.1758C17.9868 13.4009 18.1132 13.7061 18.1132 14.0243C18.1132 14.3426 17.9868 14.6478 17.7617 14.8729C17.5367 15.0979 17.2314 15.2243 16.9132 15.2243C16.5949 15.2243 16.2897 15.0979 16.0647 14.8729C15.8396 14.6478 15.7132 14.3426 15.7132 14.0243ZM7.31318 20.6243V19.4243H4.91318V20.6243C4.91318 20.9426 5.03961 21.2478 5.26466 21.4729C5.4897 21.6979 5.79492 21.8243 6.11318 21.8243C6.43144 21.8243 6.73667 21.6979 6.96171 21.4729C7.18676 21.2478 7.31318 20.9426 7.31318 20.6243ZM19.3132 19.4243V20.6243C19.3132 20.9426 19.1868 21.2478 18.9617 21.4729C18.7367 21.6979 18.4314 21.8243 18.1132 21.8243C17.7949 21.8243 17.4897 21.6979 17.2647 21.4729C17.0396 21.2478 16.9132 20.9426 16.9132 20.6243V19.4243H19.3132Z" fill="#1D4791"/>
</svg>
