<svg width="24" height="21" viewBox="0 0 24 21" fill="none" xmlns="http://www.w3.org/2000/svg">
<path d="M21 4.52889H5C4.141 4.52889 3.328 4.15689 2.765 3.52989C3.315 2.91588 4.114 2.52889 5 2.52889H23C23.553 2.52889 24 2.08089 24 1.52889C24 0.976885 23.553 0.528885 23 0.528885H5C2.239 0.528885 0 2.76789 0 5.52889V15.5289C0 18.2899 2.239 20.5289 5 20.5289H21C22.657 20.5289 24 19.1859 24 17.5289V7.52889C24 5.87189 22.657 4.52889 21 4.52889ZM22 17.5289C22 18.0799 21.552 18.5289 21 18.5289H5C3.346 18.5289 2 17.1829 2 15.5289V5.52689C2.854 6.16589 3.904 6.52889 5 6.52889H21C21.552 6.52889 22 6.97789 22 7.52889V17.5289ZM20 12.5289C20 13.0809 19.552 13.5289 19 13.5289C18.448 13.5289 18 13.0809 18 12.5289C18 11.9769 18.448 11.5289 19 11.5289C19.552 11.5289 20 11.9769 20 12.5289Z" fill="#1D4791"/>
</svg>
